<svg width="14" height="14" viewBox="0 0 14 14" fill="none" xmlns="http://www.w3.org/2000/svg">
<path d="M13.3 8.21484C13.1143 8.21484 12.9363 8.28508 12.805 8.41011C12.6737 8.53513 12.6 8.7047 12.6 8.88151V11.5482C12.6 11.725 12.5263 11.8946 12.395 12.0196C12.2637 12.1446 12.0857 12.2148 11.9 12.2148H2.1C1.91435 12.2148 1.7363 12.1446 1.60503 12.0196C1.47375 11.8946 1.4 11.725 1.4 11.5482V8.88151C1.4 8.7047 1.32625 8.53513 1.19497 8.41011C1.0637 8.28508 0.885652 8.21484 0.7 8.21484C0.514348 8.21484 0.336301 8.28508 0.205025 8.41011C0.0737498 8.53513 0 8.7047 0 8.88151V11.5482C0 12.0786 0.221249 12.5873 0.615076 12.9624C1.0089 13.3375 1.54305 13.5482 2.1 13.5482H11.9C12.457 13.5482 12.9911 13.3375 13.3849 12.9624C13.7788 12.5873 14 12.0786 14 11.5482V8.88151C14 8.7047 13.9263 8.53513 13.795 8.41011C13.6637 8.28508 13.4857 8.21484 13.3 8.21484ZM6.503 9.35484C6.56957 9.41554 6.64807 9.46311 6.734 9.49484C6.81779 9.53011 6.90839 9.54833 7 9.54833C7.09161 9.54833 7.18221 9.53011 7.266 9.49484C7.35193 9.46311 7.43043 9.41554 7.497 9.35484L10.297 6.68818C10.4288 6.56264 10.5029 6.39238 10.5029 6.21484C10.5029 6.03731 10.4288 5.86705 10.297 5.74151C10.1652 5.61597 9.98641 5.54545 9.8 5.54545C9.61359 5.54545 9.43481 5.61597 9.303 5.74151L7.7 7.27484V0.88151C7.7 0.704699 7.62625 0.53513 7.49497 0.410106C7.3637 0.285082 7.18565 0.214844 7 0.214844C6.81435 0.214844 6.6363 0.285082 6.50503 0.410106C6.37375 0.53513 6.3 0.704699 6.3 0.88151V7.27484L4.697 5.74151C4.63173 5.67935 4.55425 5.63004 4.46897 5.5964C4.3837 5.56276 4.2923 5.54545 4.2 5.54545C4.1077 5.54545 4.0163 5.56276 3.93103 5.5964C3.84575 5.63004 3.76827 5.67935 3.703 5.74151C3.63773 5.80367 3.58596 5.87746 3.55064 5.95868C3.51532 6.03989 3.49714 6.12694 3.49714 6.21484C3.49714 6.30275 3.51532 6.3898 3.55064 6.47101C3.58596 6.55222 3.63773 6.62602 3.703 6.68818L6.503 9.35484Z" fill="white"/>
</svg>
