<svg width="22px" height="26px" viewBox="0 0 23 26" fill="none" xmlns="http://www.w3.org/2000/svg" style="margin-right: 5px; min-width: 22px; height: 26px;"><path fill-rule="evenodd" clip-rule="evenodd" d="M13.5704 1.2948C14.2238 2.52661 13.8266 4.09582 12.6831 4.79971L5.57352 9.17624C5.38531 9.29212 5.26924 9.5072 5.26924 9.74012V16.6124C5.26924 16.8453 5.38531 17.0604 5.57352 17.1763L11.1988 20.6391C11.3853 20.754 11.6147 20.754 11.8012 20.6391L17.4265 17.1763C17.6147 17.0604 17.7308 16.8453 17.7308 16.6124V12.3386L12.6718 15.4136C11.5248 16.1108 10.0703 15.6743 9.42316 14.4386C8.776 13.203 9.18118 11.6361 10.3282 10.939L17.5669 6.53911C19.7719 5.19887 22.5 6.91511 22.5 9.64247V17.1332C22.5 18.8877 21.6273 20.5077 20.2133 21.3782L13.7517 25.3559C12.3564 26.2147 10.6436 26.2147 9.24829 25.3559L2.78675 21.3782C1.37268 20.5077 0.5 18.8877 0.5 17.1332V9.2193C0.5 7.46479 1.37268 5.8448 2.78675 4.97434L10.3169 0.338906C11.4604 -0.36499 12.917 0.0629752 13.5704 1.2948Z" fill="#0097CD"></path></svg>
