<svg width="22" height="24" viewBox="0 0 22 24" fill="none" xmlns="http://www.w3.org/2000/svg">
<path d="M10.9799 20.0538C10.8632 20.1163 10.7224 20.1148 10.607 20.0497L3.0148 15.7697C2.75702 15.6243 2.43799 15.8104 2.43799 16.1061C2.43799 16.242 2.50954 16.3679 2.62625 16.4376L10.6296 21.2162C10.7496 21.2878 10.8988 21.2892 11.0201 21.2199L19.367 16.4521C19.5 16.3762 19.5753 16.2292 19.5596 16.077C19.5356 15.8435 19.5137 15.5205 19.5676 15.4561L10.9799 20.0538Z" fill="white"/>
<path d="M19.5708 15.4559L19.5925 15.4443C19.5842 15.4443 19.5771 15.4485 19.5708 15.4559Z" fill="white"/>
<path d="M19.2608 17.7151L10.8274 22.4443L2.31846 17.5853C2.07286 17.445 1.92116 17.1841 1.92116 16.9014V14.9949C1.92116 14.6315 2.31237 14.4021 2.63015 14.579L10.836 19.1516L20.5691 13.6438C20.6739 13.5845 20.6648 13.4307 20.5538 13.384L19.4218 12.9089C18.6861 12.6001 17.852 12.6288 17.1393 12.9874L10.836 16.1585L4.54557 13.0615C3.72425 12.6571 2.76107 12.6585 1.94085 13.0649C1.28341 13.3907 0.867676 14.0604 0.867676 14.7933V16.3543C0.867676 17.227 1.32903 18.0349 2.08114 18.4791L10.8274 23.6451L21.057 17.7828L20.5817 17.6088C20.1471 17.4497 19.6643 17.4885 19.2608 17.7149V17.7151Z" fill="#0097CF"/>
<path d="M21.5421 6.68332L10.9895 0.587736C10.8945 0.53297 10.7774 0.533282 10.6828 0.588516L0.256978 6.68582C0.0526248 6.80533 0.056843 7.10179 0.264478 7.21538L3.96534 9.24032V10.9399C3.96534 11.2553 4.13689 11.5455 4.41326 11.6979L10.4095 15.0054C10.6696 15.1488 10.9851 15.1495 11.2455 15.0067L17.2902 11.6973C17.5678 11.5453 17.7405 11.2542 17.7405 10.9379V9.24017L20.4213 7.80876V11.6101C20.4213 11.8273 20.5977 12.0034 20.8151 12.0034H20.9842C21.2017 12.0034 21.3781 11.8273 21.3781 11.6101V7.29792L21.533 7.21522C21.7438 7.10273 21.7488 6.80284 21.5419 6.68332H21.5421ZM19.8006 7.11817L10.9487 11.7756C10.887 11.8081 10.8132 11.8078 10.7518 11.7749L2.0707 7.12566C1.9254 7.04796 1.92274 6.84091 2.06585 6.75931L10.7246 1.81912C10.7884 1.78276 10.8665 1.78229 10.9306 1.81802L19.8046 6.7501C19.9501 6.83092 19.9477 7.04078 19.8004 7.11833L19.8006 7.11817Z" fill="white"/>
</svg>
