<svg width="1625" height="322" viewBox="0 0 1625 322" fill="none" xmlns="http://www.w3.org/2000/svg">
<path d="M57.7229 1.15625H361.964V320.844H57.7229C26.3957 320.844 1 295.45 1 264.125V57.875C1 26.5501 26.3957 1.15625 57.7229 1.15625Z" fill="#2F363D"/>
<path d="M57.7229 1.15625H361.964V320.844H57.7229C26.3957 320.844 1 295.45 1 264.125V57.875C1 26.5501 26.3957 1.15625 57.7229 1.15625Z" stroke="#444D56"/>
<path d="M361.687 1C817.397 1 1072.9 1 1528.61 1C1545.77 1 1559.69 26.4186 1559.69 57.7742V264.226C1559.69 295.582 1545.77 321 1528.61 321H945.147H361.687V1Z" fill="#24292E"/>
<path d="M361.687 1H1528.61C1545.77 1 1559.69 26.4186 1559.69 57.7742V264.226C1559.69 295.582 1545.77 321 1528.61 321H361.687V1Z" stroke="#444D56"/>
<path d="M1236.69 1H1574.69C1602.3 1 1624.69 23.3858 1624.69 51V271C1624.69 298.614 1602.3 321 1574.69 321H1236.69V1Z" fill="#24292E"/>
<path fill-rule="evenodd" clip-rule="evenodd" d="M198.173 66.2458C203.446 75.9747 200.207 88.3411 190.926 93.8781L129.929 130.261C129.445 130.559 129.046 130.977 128.771 131.474C128.495 131.971 128.353 132.531 128.357 133.099V192.032C128.357 193.202 128.96 194.285 129.929 194.87L179.819 224.625C180.78 225.201 181.95 225.201 182.91 224.625L232.801 194.87C233.285 194.573 233.684 194.155 233.959 193.658C234.234 193.16 234.377 192.6 234.372 192.032V154.592L190.838 180.233C181.522 185.718 169.744 182.251 164.514 172.496C159.275 162.732 162.593 150.383 171.9 144.898L233.089 108.856C250.97 98.3233 273.043 111.869 273.043 133.361V192.032C273.043 207.778 264.975 222.31 251.913 230.109L202.032 259.864C195.79 263.615 188.646 265.596 181.365 265.596C174.084 265.596 166.939 263.615 160.698 259.864L110.808 230.101C97.7544 222.31 89.6868 207.778 89.6868 192.023V133.108C89.6868 117.362 97.7544 102.83 110.816 95.0309L171.804 58.6565C181.085 53.1196 192.89 56.5169 198.173 66.2545V66.2458Z" fill="url(#paint0_linear_401_28)"/>
<path d="M556.028 149.636C556.028 161.057 553.863 170.773 549.533 178.784C545.238 186.795 539.374 192.915 531.942 197.142C524.545 201.335 516.227 203.432 506.988 203.432C497.681 203.432 489.329 201.318 481.931 197.091C474.533 192.864 468.687 186.744 464.391 178.733C460.096 170.722 457.948 161.023 457.948 149.636C457.948 138.216 460.096 128.5 464.391 120.489C468.687 112.477 474.533 106.375 481.931 102.182C489.329 97.9545 497.681 95.8409 506.988 95.8409C516.227 95.8409 524.545 97.9545 531.942 102.182C539.374 106.375 545.238 112.477 549.533 120.489C553.863 128.5 556.028 138.216 556.028 149.636ZM533.579 149.636C533.579 142.239 532.471 136 530.255 130.92C528.073 125.841 524.988 121.989 520.999 119.364C517.011 116.739 512.34 115.426 506.988 115.426C501.636 115.426 496.965 116.739 492.977 119.364C488.988 121.989 485.886 125.841 483.67 130.92C481.488 136 480.397 142.239 480.397 149.636C480.397 157.034 481.488 163.273 483.67 168.352C485.886 173.432 488.988 177.284 492.977 179.909C496.965 182.534 501.636 183.847 506.988 183.847C512.34 183.847 517.011 182.534 520.999 179.909C524.988 177.284 528.073 173.432 530.255 168.352C532.471 163.273 533.579 157.034 533.579 149.636ZM572.021 231.455V123.455H593.498V136.648H594.469C595.424 134.534 596.805 132.386 598.611 130.205C600.452 127.989 602.839 126.148 605.771 124.682C608.736 123.182 612.418 122.432 616.816 122.432C622.543 122.432 627.827 123.932 632.668 126.932C637.509 129.898 641.379 134.381 644.276 140.381C647.174 146.347 648.623 153.83 648.623 162.83C648.623 171.591 647.208 178.989 644.379 185.023C641.583 191.023 637.765 195.574 632.924 198.676C628.117 201.744 622.731 203.278 616.765 203.278C612.538 203.278 608.941 202.58 605.975 201.182C603.043 199.784 600.64 198.028 598.765 195.915C596.89 193.767 595.458 191.602 594.469 189.42H593.805V231.455H572.021ZM593.344 162.727C593.344 167.398 593.992 171.472 595.288 174.949C596.583 178.426 598.458 181.136 600.913 183.08C603.367 184.989 606.35 185.943 609.861 185.943C613.407 185.943 616.407 184.972 618.861 183.028C621.316 181.051 623.174 178.324 624.435 174.847C625.731 171.335 626.379 167.295 626.379 162.727C626.379 158.193 625.748 154.205 624.486 150.761C623.225 147.318 621.367 144.625 618.913 142.682C616.458 140.739 613.441 139.767 609.861 139.767C606.316 139.767 603.316 140.705 600.861 142.58C598.441 144.455 596.583 147.114 595.288 150.557C593.992 154 593.344 158.057 593.344 162.727ZM698.941 203.534C690.861 203.534 683.907 201.898 678.077 198.625C672.282 195.318 667.816 190.648 664.68 184.614C661.543 178.545 659.975 171.369 659.975 163.085C659.975 155.006 661.543 147.915 664.68 141.812C667.816 135.71 672.231 130.955 677.924 127.545C683.651 124.136 690.367 122.432 698.072 122.432C703.254 122.432 708.077 123.267 712.543 124.938C717.043 126.574 720.964 129.045 724.305 132.352C727.68 135.659 730.305 139.818 732.18 144.83C734.055 149.807 734.992 155.636 734.992 162.318V168.301H668.668V154.801H714.486C714.486 151.665 713.805 148.886 712.441 146.466C711.077 144.045 709.185 142.153 706.765 140.79C704.379 139.392 701.6 138.693 698.43 138.693C695.123 138.693 692.191 139.46 689.634 140.994C687.111 142.494 685.134 144.523 683.702 147.08C682.271 149.602 681.538 152.415 681.504 155.517V168.352C681.504 172.239 682.219 175.597 683.651 178.426C685.117 181.256 687.18 183.438 689.839 184.972C692.498 186.506 695.651 187.273 699.299 187.273C701.719 187.273 703.935 186.932 705.947 186.25C707.958 185.568 709.68 184.545 711.111 183.182C712.543 181.818 713.634 180.148 714.384 178.17L734.532 179.5C733.509 184.341 731.413 188.568 728.242 192.182C725.106 195.761 721.049 198.557 716.072 200.568C711.129 202.545 705.418 203.534 698.941 203.534ZM770.992 156.591V202H749.208V123.455H769.969V137.312H770.89C772.629 132.744 775.543 129.131 779.634 126.472C783.725 123.778 788.685 122.432 794.515 122.432C799.969 122.432 804.725 123.625 808.782 126.011C812.839 128.398 815.992 131.807 818.242 136.239C820.492 140.636 821.617 145.886 821.617 151.989V202H799.833V155.875C799.867 151.068 798.64 147.318 796.151 144.625C793.663 141.898 790.236 140.534 785.873 140.534C782.941 140.534 780.35 141.165 778.1 142.426C775.884 143.687 774.146 145.528 772.884 147.949C771.657 150.335 771.026 153.216 770.992 156.591ZM872.114 202V123.455H893.898V202H872.114ZM883.058 113.33C879.819 113.33 877.04 112.256 874.722 110.108C872.438 107.926 871.296 105.318 871.296 102.284C871.296 99.2841 872.438 96.7102 874.722 94.5625C877.04 92.3807 879.819 91.2898 883.058 91.2898C886.296 91.2898 889.058 92.3807 891.342 94.5625C893.66 96.7102 894.819 99.2841 894.819 102.284C894.819 105.318 893.66 107.926 891.342 110.108C889.058 112.256 886.296 113.33 883.058 113.33ZM933.133 156.591V202H911.349V123.455H932.11V137.312H933.031C934.769 132.744 937.684 129.131 941.775 126.472C945.866 123.778 950.826 122.432 956.656 122.432C962.11 122.432 966.866 123.625 970.923 126.011C974.979 128.398 978.133 131.807 980.383 136.239C982.633 140.636 983.758 145.886 983.758 151.989V202H961.974V155.875C962.008 151.068 960.781 147.318 958.292 144.625C955.803 141.898 952.377 140.534 948.013 140.534C945.082 140.534 942.491 141.165 940.241 142.426C938.025 143.687 936.286 145.528 935.025 147.949C933.798 150.335 933.167 153.216 933.133 156.591ZM1104.11 131.125C1103.39 128.636 1102.39 126.437 1101.09 124.528C1099.79 122.585 1098.21 120.949 1096.33 119.619C1094.49 118.256 1092.38 117.216 1089.99 116.5C1087.64 115.784 1085.03 115.426 1082.17 115.426C1076.82 115.426 1072.11 116.756 1068.06 119.415C1064.03 122.074 1060.9 125.943 1058.65 131.023C1056.4 136.068 1055.27 142.239 1055.27 149.534C1055.27 156.83 1056.38 163.034 1058.6 168.148C1060.81 173.261 1063.95 177.165 1068 179.858C1072.06 182.517 1076.85 183.847 1082.37 183.847C1087.39 183.847 1091.66 182.96 1095.21 181.188C1098.79 179.381 1101.52 176.841 1103.39 173.568C1105.3 170.295 1106.25 166.426 1106.25 161.96L1110.75 162.625H1083.75V145.955H1127.58V159.148C1127.58 168.352 1125.64 176.261 1121.75 182.875C1117.86 189.455 1112.51 194.534 1105.69 198.114C1098.87 201.659 1091.07 203.432 1082.27 203.432C1072.45 203.432 1063.83 201.267 1056.4 196.938C1048.97 192.574 1043.17 186.386 1039.01 178.375C1034.89 170.33 1032.82 160.784 1032.82 149.739C1032.82 141.25 1034.05 133.682 1036.5 127.034C1038.99 120.352 1042.47 114.693 1046.94 110.057C1051.4 105.42 1056.6 101.892 1062.53 99.4716C1068.47 97.0511 1074.89 95.8409 1081.81 95.8409C1087.74 95.8409 1093.27 96.7102 1098.38 98.4489C1103.49 100.153 1108.03 102.574 1111.98 105.71C1115.97 108.847 1119.23 112.58 1121.75 116.909C1124.27 121.205 1125.89 125.943 1126.61 131.125H1104.11ZM1148.72 202V123.455H1170.51V202H1148.72ZM1159.67 113.33C1156.43 113.33 1153.65 112.256 1151.33 110.108C1149.05 107.926 1147.91 105.318 1147.91 102.284C1147.91 99.2841 1149.05 96.7102 1151.33 94.5625C1153.65 92.3807 1156.43 91.2898 1159.67 91.2898C1162.91 91.2898 1165.67 92.3807 1167.95 94.5625C1170.27 96.7102 1171.43 99.2841 1171.43 102.284C1171.43 105.318 1170.27 107.926 1167.95 110.108C1165.67 112.256 1162.91 113.33 1159.67 113.33ZM1229.74 123.455V139.818H1182.44V123.455H1229.74ZM1193.17 104.636H1214.96V177.864C1214.96 179.875 1215.26 181.443 1215.88 182.568C1216.49 183.659 1217.34 184.426 1218.44 184.869C1219.56 185.312 1220.86 185.534 1222.32 185.534C1223.34 185.534 1224.37 185.449 1225.39 185.278C1226.41 185.074 1227.2 184.92 1227.74 184.818L1231.17 201.028C1230.08 201.369 1228.54 201.761 1226.57 202.205C1224.59 202.682 1222.19 202.972 1219.36 203.074C1214.11 203.278 1209.5 202.58 1205.55 200.977C1201.63 199.375 1198.58 196.886 1196.4 193.511C1194.21 190.136 1193.14 185.875 1193.17 180.727V104.636ZM1243.93 231.455V123.455H1265.4V136.648H1266.38C1267.33 134.534 1268.71 132.386 1270.52 130.205C1272.36 127.989 1274.75 126.148 1277.68 124.682C1280.64 123.182 1284.32 122.432 1288.72 122.432C1294.45 122.432 1299.73 123.932 1304.57 126.932C1309.42 129.898 1313.28 134.381 1316.18 140.381C1319.08 146.347 1320.53 153.83 1320.53 162.83C1320.53 171.591 1319.11 178.989 1316.28 185.023C1313.49 191.023 1309.67 195.574 1304.83 198.676C1300.02 201.744 1294.64 203.278 1288.67 203.278C1284.44 203.278 1280.85 202.58 1277.88 201.182C1274.95 199.784 1272.55 198.028 1270.67 195.915C1268.8 193.767 1267.36 191.602 1266.38 189.42H1265.71V231.455H1243.93ZM1265.25 162.727C1265.25 167.398 1265.9 171.472 1267.19 174.949C1268.49 178.426 1270.36 181.136 1272.82 183.08C1275.27 184.989 1278.26 185.943 1281.77 185.943C1285.31 185.943 1288.31 184.972 1290.77 183.028C1293.22 181.051 1295.08 178.324 1296.34 174.847C1297.64 171.335 1298.28 167.295 1298.28 162.727C1298.28 158.193 1297.65 154.205 1296.39 150.761C1295.13 147.318 1293.27 144.625 1290.82 142.682C1288.36 140.739 1285.35 139.767 1281.77 139.767C1278.22 139.767 1275.22 140.705 1272.77 142.58C1270.35 144.455 1268.49 147.114 1267.19 150.557C1265.9 154 1265.25 158.057 1265.25 162.727ZM1370.54 203.534C1362.6 203.534 1355.73 201.847 1349.93 198.472C1344.17 195.062 1339.72 190.324 1336.59 184.256C1333.45 178.153 1331.88 171.08 1331.88 163.034C1331.88 154.92 1333.45 147.83 1336.59 141.761C1339.72 135.659 1344.17 130.92 1349.93 127.545C1355.73 124.136 1362.6 122.432 1370.54 122.432C1378.48 122.432 1385.34 124.136 1391.1 127.545C1396.89 130.92 1401.36 135.659 1404.5 141.761C1407.63 147.83 1409.2 154.92 1409.2 163.034C1409.2 171.08 1407.63 178.153 1404.5 184.256C1401.36 190.324 1396.89 195.062 1391.1 198.472C1385.34 201.847 1378.48 203.534 1370.54 203.534ZM1370.64 186.659C1374.26 186.659 1377.27 185.636 1379.69 183.591C1382.11 181.511 1383.94 178.682 1385.17 175.102C1386.43 171.523 1387.06 167.449 1387.06 162.881C1387.06 158.312 1386.43 154.239 1385.17 150.659C1383.94 147.08 1382.11 144.25 1379.69 142.17C1377.27 140.091 1374.26 139.051 1370.64 139.051C1367 139.051 1363.93 140.091 1361.44 142.17C1358.98 144.25 1357.13 147.08 1355.86 150.659C1354.64 154.239 1354.02 158.312 1354.02 162.881C1354.02 167.449 1354.64 171.523 1355.86 175.102C1357.13 178.682 1358.98 181.511 1361.44 183.591C1363.93 185.636 1367 186.659 1370.64 186.659ZM1452.31 203.278C1446.34 203.278 1440.94 201.744 1436.1 198.676C1431.29 195.574 1427.47 191.023 1424.64 185.023C1421.85 178.989 1420.45 171.591 1420.45 162.83C1420.45 153.83 1421.9 146.347 1424.8 140.381C1427.69 134.381 1431.55 129.898 1436.35 126.932C1441.19 123.932 1446.5 122.432 1452.26 122.432C1456.65 122.432 1460.32 123.182 1463.25 124.682C1466.22 126.148 1468.6 127.989 1470.41 130.205C1472.25 132.386 1473.65 134.534 1474.6 136.648H1475.27V97.2727H1497V202H1475.52V189.42H1474.6C1473.58 191.602 1472.13 193.767 1470.26 195.915C1468.42 198.028 1466.01 199.784 1463.05 201.182C1460.11 202.58 1456.53 203.278 1452.31 203.278ZM1459.21 185.943C1462.72 185.943 1465.69 184.989 1468.11 183.08C1470.56 181.136 1472.44 178.426 1473.73 174.949C1475.06 171.472 1475.73 167.398 1475.73 162.727C1475.73 158.057 1475.08 154 1473.78 150.557C1472.49 147.114 1470.61 144.455 1468.16 142.58C1465.71 140.705 1462.72 139.767 1459.21 139.767C1455.63 139.767 1452.61 140.739 1450.16 142.682C1447.71 144.625 1445.85 147.318 1444.59 150.761C1443.32 154.205 1442.69 158.193 1442.69 162.727C1442.69 167.295 1443.32 171.335 1444.59 174.847C1445.88 178.324 1447.74 181.051 1450.16 183.028C1452.61 184.972 1455.63 185.943 1459.21 185.943Z" fill="white"/>
<defs>
<linearGradient id="paint0_linear_401_28" x1="227.693" y1="87.6861" x2="127.975" y2="238.148" gradientUnits="userSpaceOnUse">
<stop stop-color="#FFB45B"/>
<stop offset="1" stop-color="#FF8A00"/>
</linearGradient>
</defs>
</svg>
