<svg width="2568" height="330" viewBox="0 0 2568 330" fill="none" xmlns="http://www.w3.org/2000/svg">
<path d="M67.0361 5.15625H371.277V324.844H67.0361C35.7089 324.844 10.3132 299.45 10.3132 268.125V61.875C10.3132 30.5501 35.7089 5.15625 67.0361 5.15625Z" fill="#2F363D"/>
<path fill-rule="evenodd" clip-rule="evenodd" d="M190.795 87.6562C147.11 87.6562 111.727 123.036 111.727 166.719C111.727 201.704 134.36 231.254 165.79 241.729C169.743 242.421 171.226 240.049 171.226 237.973C171.226 236.096 171.127 229.87 171.127 223.248C151.261 226.905 146.121 218.405 144.54 213.959C143.65 211.686 139.796 204.669 136.436 202.791C133.668 201.308 129.715 197.651 136.337 197.553C142.563 197.454 147.011 203.285 148.493 205.657C155.609 217.615 166.976 214.255 171.522 212.18C172.214 207.041 174.29 203.581 176.563 201.605C158.971 199.628 140.587 192.81 140.587 162.568C140.587 153.97 143.65 146.854 148.691 141.319C147.9 139.344 145.133 131.239 149.482 120.369C149.482 120.369 156.103 118.293 171.226 128.472C177.551 126.693 184.272 125.804 190.993 125.804C197.713 125.804 204.434 126.693 210.76 128.472C225.882 118.195 232.504 120.369 232.504 120.369C236.852 131.239 234.085 139.344 233.294 141.319C238.335 146.854 241.399 153.871 241.399 162.568C241.399 192.908 222.917 199.628 205.323 201.605C208.191 204.076 210.661 208.82 210.661 216.231C210.661 226.806 210.563 235.305 210.563 237.973C210.563 240.049 212.045 242.52 215.998 241.729C247.23 231.254 269.864 201.605 269.864 166.719C269.864 123.036 234.48 87.6562 190.795 87.6562Z" fill="white"/>
<path d="M67.0361 5.15625H371.277V324.844H67.0361C35.7089 324.844 10.3132 299.45 10.3132 268.125V61.875C10.3132 30.5501 35.7089 5.15625 67.0361 5.15625Z" stroke="#444D56"/>
<path d="M371.277 5.15625H2500.96C2532.3 5.15625 2557.69 30.5501 2557.69 61.875V268.125C2557.69 299.45 2532.3 324.844 2500.96 324.844H371.277V5.15625Z" fill="#24292E"/>
<path d="M371.277 5.15625H2500.96C2532.3 5.15625 2557.69 30.5501 2557.69 61.875V268.125C2557.69 299.45 2532.3 324.844 2500.96 324.844H371.277V5.15625Z" stroke="#444D56"/>
<path d="M584.341 154.636C584.341 166.057 582.176 175.773 577.847 183.784C573.551 191.795 567.688 197.915 560.256 202.142C552.858 206.335 544.54 208.432 535.301 208.432C525.994 208.432 517.642 206.318 510.244 202.091C502.847 197.864 497 191.744 492.705 183.733C488.409 175.722 486.261 166.023 486.261 154.636C486.261 143.216 488.409 133.5 492.705 125.489C497 117.477 502.847 111.375 510.244 107.182C517.642 102.955 525.994 100.841 535.301 100.841C544.54 100.841 552.858 102.955 560.256 107.182C567.688 111.375 573.551 117.477 577.847 125.489C582.176 133.5 584.341 143.216 584.341 154.636ZM561.892 154.636C561.892 147.239 560.784 141 558.568 135.92C556.386 130.841 553.301 126.989 549.312 124.364C545.324 121.739 540.653 120.426 535.301 120.426C529.949 120.426 525.278 121.739 521.29 124.364C517.301 126.989 514.199 130.841 511.983 135.92C509.801 141 508.71 147.239 508.71 154.636C508.71 162.034 509.801 168.273 511.983 173.352C514.199 178.432 517.301 182.284 521.29 184.909C525.278 187.534 529.949 188.847 535.301 188.847C540.653 188.847 545.324 187.534 549.312 184.909C553.301 182.284 556.386 178.432 558.568 173.352C560.784 168.273 561.892 162.034 561.892 154.636ZM600.334 236.455V128.455H621.811V141.648H622.783C623.737 139.534 625.118 137.386 626.925 135.205C628.766 132.989 631.152 131.148 634.084 129.682C637.05 128.182 640.732 127.432 645.129 127.432C650.857 127.432 656.141 128.932 660.982 131.932C665.822 134.898 669.692 139.381 672.589 145.381C675.487 151.347 676.936 158.83 676.936 167.83C676.936 176.591 675.521 183.989 672.692 190.023C669.896 196.023 666.078 200.574 661.237 203.676C656.43 206.744 651.044 208.278 645.078 208.278C640.851 208.278 637.254 207.58 634.288 206.182C631.357 204.784 628.953 203.028 627.078 200.915C625.203 198.767 623.771 196.602 622.783 194.42H622.118V236.455H600.334ZM621.658 167.727C621.658 172.398 622.305 176.472 623.601 179.949C624.896 183.426 626.771 186.136 629.226 188.08C631.68 189.989 634.663 190.943 638.175 190.943C641.72 190.943 644.72 189.972 647.175 188.028C649.629 186.051 651.487 183.324 652.749 179.847C654.044 176.335 654.692 172.295 654.692 167.727C654.692 163.193 654.061 159.205 652.8 155.761C651.538 152.318 649.68 149.625 647.226 147.682C644.771 145.739 641.754 144.767 638.175 144.767C634.629 144.767 631.629 145.705 629.175 147.58C626.754 149.455 624.896 152.114 623.601 155.557C622.305 159 621.658 163.057 621.658 167.727ZM727.254 208.534C719.175 208.534 712.22 206.898 706.391 203.625C700.595 200.318 696.129 195.648 692.993 189.614C689.857 183.545 688.288 176.369 688.288 168.085C688.288 160.006 689.857 152.915 692.993 146.812C696.129 140.71 700.544 135.955 706.237 132.545C711.964 129.136 718.68 127.432 726.385 127.432C731.567 127.432 736.391 128.267 740.857 129.938C745.357 131.574 749.277 134.045 752.618 137.352C755.993 140.659 758.618 144.818 760.493 149.83C762.368 154.807 763.305 160.636 763.305 167.318V173.301H696.982V159.801H742.8C742.8 156.665 742.118 153.886 740.754 151.466C739.391 149.045 737.499 147.153 735.078 145.79C732.692 144.392 729.913 143.693 726.743 143.693C723.436 143.693 720.504 144.46 717.947 145.994C715.425 147.494 713.447 149.523 712.016 152.08C710.584 154.602 709.851 157.415 709.817 160.517V173.352C709.817 177.239 710.533 180.597 711.964 183.426C713.43 186.256 715.493 188.438 718.152 189.972C720.811 191.506 723.964 192.273 727.612 192.273C730.033 192.273 732.249 191.932 734.26 191.25C736.271 190.568 737.993 189.545 739.425 188.182C740.857 186.818 741.947 185.148 742.697 183.17L762.845 184.5C761.822 189.341 759.726 193.568 756.555 197.182C753.419 200.761 749.362 203.557 744.385 205.568C739.442 207.545 733.732 208.534 727.254 208.534ZM799.305 161.591V207H777.521V128.455H798.283V142.312H799.203C800.942 137.744 803.857 134.131 807.947 131.472C812.038 128.778 816.999 127.432 822.828 127.432C828.283 127.432 833.038 128.625 837.095 131.011C841.152 133.398 844.305 136.807 846.555 141.239C848.805 145.636 849.93 150.886 849.93 156.989V207H828.146V160.875C828.18 156.068 826.953 152.318 824.464 149.625C821.976 146.898 818.55 145.534 814.186 145.534C811.254 145.534 808.663 146.165 806.413 147.426C804.197 148.687 802.459 150.528 801.197 152.949C799.97 155.335 799.339 158.216 799.305 161.591ZM900.428 207V128.455H922.212V207H900.428ZM911.371 118.33C908.132 118.33 905.354 117.256 903.036 115.108C900.751 112.926 899.609 110.318 899.609 107.284C899.609 104.284 900.751 101.71 903.036 99.5625C905.354 97.3807 908.132 96.2898 911.371 96.2898C914.609 96.2898 917.371 97.3807 919.655 99.5625C921.973 101.71 923.132 104.284 923.132 107.284C923.132 110.318 921.973 112.926 919.655 115.108C917.371 117.256 914.609 118.33 911.371 118.33ZM961.446 161.591V207H939.662V128.455H960.423V142.312H961.344C963.082 137.744 965.997 134.131 970.088 131.472C974.179 128.778 979.139 127.432 984.969 127.432C990.423 127.432 995.179 128.625 999.236 131.011C1003.29 133.398 1006.45 136.807 1008.7 141.239C1010.95 145.636 1012.07 150.886 1012.07 156.989V207H990.287V160.875C990.321 156.068 989.094 152.318 986.605 149.625C984.116 146.898 980.69 145.534 976.327 145.534C973.395 145.534 970.804 146.165 968.554 147.426C966.338 148.687 964.599 150.528 963.338 152.949C962.111 155.335 961.48 158.216 961.446 161.591ZM1132.42 136.125C1131.7 133.636 1130.7 131.437 1129.4 129.528C1128.11 127.585 1126.52 125.949 1124.65 124.619C1122.81 123.256 1120.69 122.216 1118.31 121.5C1115.95 120.784 1113.35 120.426 1110.48 120.426C1105.13 120.426 1100.43 121.756 1096.37 124.415C1092.35 127.074 1089.21 130.943 1086.96 136.023C1084.71 141.068 1083.59 147.239 1083.59 154.534C1083.59 161.83 1084.69 168.034 1086.91 173.148C1089.13 178.261 1092.26 182.165 1096.32 184.858C1100.38 187.517 1105.16 188.847 1110.69 188.847C1115.7 188.847 1119.98 187.96 1123.52 186.188C1127.1 184.381 1129.83 181.841 1131.7 178.568C1133.61 175.295 1134.57 171.426 1134.57 166.96L1139.07 167.625H1112.07V150.955H1155.89V164.148C1155.89 173.352 1153.95 181.261 1150.06 187.875C1146.18 194.455 1140.82 199.534 1134.01 203.114C1127.19 206.659 1119.38 208.432 1110.59 208.432C1100.77 208.432 1092.14 206.267 1084.71 201.938C1077.28 197.574 1071.48 191.386 1067.32 183.375C1063.2 175.33 1061.14 165.784 1061.14 154.739C1061.14 146.25 1062.36 138.682 1064.82 132.034C1067.31 125.352 1070.78 119.693 1075.25 115.057C1079.72 110.42 1084.91 106.892 1090.85 104.472C1096.78 102.051 1103.2 100.841 1110.12 100.841C1116.06 100.841 1121.58 101.71 1126.69 103.449C1131.81 105.153 1136.34 107.574 1140.3 110.71C1144.28 113.847 1147.54 117.58 1150.06 121.909C1152.59 126.205 1154.2 130.943 1154.92 136.125H1132.42ZM1177.04 207V128.455H1198.82V207H1177.04ZM1187.98 118.33C1184.74 118.33 1181.96 117.256 1179.64 115.108C1177.36 112.926 1176.22 110.318 1176.22 107.284C1176.22 104.284 1177.36 101.71 1179.64 99.5625C1181.96 97.3807 1184.74 96.2898 1187.98 96.2898C1191.22 96.2898 1193.98 97.3807 1196.26 99.5625C1198.58 101.71 1199.74 104.284 1199.74 107.284C1199.74 110.318 1198.58 112.926 1196.26 115.108C1193.98 117.256 1191.22 118.33 1187.98 118.33ZM1258.05 128.455V144.818H1210.75V128.455H1258.05ZM1221.49 109.636H1243.27V182.864C1243.27 184.875 1243.58 186.443 1244.19 187.568C1244.81 188.659 1245.66 189.426 1246.75 189.869C1247.87 190.312 1249.17 190.534 1250.63 190.534C1251.66 190.534 1252.68 190.449 1253.7 190.278C1254.73 190.074 1255.51 189.92 1256.06 189.818L1259.48 206.028C1258.39 206.369 1256.86 206.761 1254.88 207.205C1252.9 207.682 1250.5 207.972 1247.67 208.074C1242.42 208.278 1237.82 207.58 1233.86 205.977C1229.94 204.375 1226.89 201.886 1224.71 198.511C1222.53 195.136 1221.45 190.875 1221.49 185.727V109.636ZM1274.34 207V102.273H1296.48V145.483H1341.43V102.273H1363.52V207H1341.43V163.739H1296.48V207H1274.34ZM1431.73 173.557V128.455H1453.52V207H1432.6V192.733H1431.79C1430.01 197.335 1427.06 201.034 1422.94 203.83C1418.85 206.625 1413.85 208.023 1407.96 208.023C1402.71 208.023 1398.09 206.83 1394.1 204.443C1390.11 202.057 1386.99 198.665 1384.74 194.267C1382.52 189.869 1381.4 184.602 1381.37 178.466V128.455H1403.15V174.58C1403.18 179.216 1404.43 182.881 1406.88 185.574C1409.34 188.267 1412.63 189.614 1416.75 189.614C1419.38 189.614 1421.83 189.017 1424.12 187.824C1426.4 186.597 1428.24 184.79 1429.64 182.403C1431.07 180.017 1431.77 177.068 1431.73 173.557ZM1471.35 207V102.273H1493.14V141.648H1493.8C1494.76 139.534 1496.14 137.386 1497.94 135.205C1499.78 132.989 1502.17 131.148 1505.1 129.682C1508.07 128.182 1511.75 127.432 1516.15 127.432C1521.88 127.432 1527.16 128.932 1532 131.932C1536.84 134.898 1540.71 139.381 1543.61 145.381C1546.51 151.347 1547.95 158.83 1547.95 167.83C1547.95 176.591 1546.54 183.989 1543.71 190.023C1540.91 196.023 1537.1 200.574 1532.26 203.676C1527.45 206.744 1522.06 208.278 1516.1 208.278C1511.87 208.278 1508.27 207.58 1505.31 206.182C1502.38 204.784 1499.97 203.028 1498.1 200.915C1496.22 198.767 1494.79 196.602 1493.8 194.42H1492.83V207H1471.35ZM1492.68 167.727C1492.68 172.398 1493.32 176.472 1494.62 179.949C1495.91 183.426 1497.79 186.136 1500.24 188.08C1502.7 189.989 1505.68 190.943 1509.19 190.943C1512.74 190.943 1515.74 189.972 1518.19 188.028C1520.65 186.051 1522.51 183.324 1523.77 179.847C1525.06 176.335 1525.71 172.295 1525.71 167.727C1525.71 163.193 1525.08 159.205 1523.82 155.761C1522.56 152.318 1520.7 149.625 1518.24 147.682C1515.79 145.739 1512.77 144.767 1509.19 144.767C1505.65 144.767 1502.65 145.705 1500.19 147.58C1497.77 149.455 1495.91 152.114 1494.62 155.557C1493.32 159 1492.68 163.057 1492.68 167.727ZM1688.63 138.938H1666.23C1665.82 136.04 1664.99 133.466 1663.73 131.216C1662.47 128.932 1660.85 126.989 1658.87 125.386C1656.89 123.784 1654.61 122.557 1652.02 121.705C1649.46 120.852 1646.68 120.426 1643.68 120.426C1638.26 120.426 1633.54 121.773 1629.52 124.466C1625.49 127.125 1622.38 131.011 1620.16 136.125C1617.94 141.205 1616.84 147.375 1616.84 154.636C1616.84 162.102 1617.94 168.375 1620.16 173.455C1622.41 178.534 1625.55 182.369 1629.57 184.96C1633.59 187.551 1638.24 188.847 1643.53 188.847C1646.49 188.847 1649.24 188.455 1651.76 187.67C1654.32 186.886 1656.59 185.744 1658.56 184.244C1660.54 182.71 1662.18 180.852 1663.47 178.67C1664.8 176.489 1665.72 174 1666.23 171.205L1688.63 171.307C1688.05 176.114 1686.6 180.75 1684.28 185.216C1682 189.648 1678.91 193.619 1675.03 197.131C1671.18 200.608 1666.57 203.369 1661.22 205.415C1655.9 207.426 1649.89 208.432 1643.17 208.432C1633.83 208.432 1625.48 206.318 1618.11 202.091C1610.78 197.864 1604.99 191.744 1600.73 183.733C1596.5 175.722 1594.39 166.023 1594.39 154.636C1594.39 143.216 1596.53 133.5 1600.83 125.489C1605.13 117.477 1610.95 111.375 1618.32 107.182C1625.68 102.955 1633.97 100.841 1643.17 100.841C1649.24 100.841 1654.86 101.693 1660.05 103.398C1665.26 105.102 1669.88 107.591 1673.9 110.864C1677.93 114.102 1681.2 118.074 1683.72 122.778C1686.28 127.483 1687.91 132.869 1688.63 138.938ZM1739.59 208.534C1731.64 208.534 1724.78 206.847 1718.98 203.472C1713.22 200.062 1708.77 195.324 1705.63 189.256C1702.5 183.153 1700.93 176.08 1700.93 168.034C1700.93 159.92 1702.5 152.83 1705.63 146.761C1708.77 140.659 1713.22 135.92 1718.98 132.545C1724.78 129.136 1731.64 127.432 1739.59 127.432C1747.53 127.432 1754.38 129.136 1760.14 132.545C1765.94 135.92 1770.41 140.659 1773.54 146.761C1776.68 152.83 1778.25 159.92 1778.25 168.034C1778.25 176.08 1776.68 183.153 1773.54 189.256C1770.41 195.324 1765.94 200.062 1760.14 203.472C1754.38 206.847 1747.53 208.534 1739.59 208.534ZM1739.69 191.659C1743.3 191.659 1746.32 190.636 1748.74 188.591C1751.16 186.511 1752.99 183.682 1754.21 180.102C1755.47 176.523 1756.11 172.449 1756.11 167.881C1756.11 163.312 1755.47 159.239 1754.21 155.659C1752.99 152.08 1751.16 149.25 1748.74 147.17C1746.32 145.091 1743.3 144.051 1739.69 144.051C1736.04 144.051 1732.97 145.091 1730.49 147.17C1728.03 149.25 1726.17 152.08 1724.91 155.659C1723.68 159.239 1723.07 163.312 1723.07 167.881C1723.07 172.449 1723.68 176.523 1724.91 180.102C1726.17 183.682 1728.03 186.511 1730.49 188.591C1732.97 190.636 1736.04 191.659 1739.69 191.659ZM1821.36 208.278C1815.39 208.278 1809.99 206.744 1805.14 203.676C1800.34 200.574 1796.52 196.023 1793.69 190.023C1790.89 183.989 1789.5 176.591 1789.5 167.83C1789.5 158.83 1790.95 151.347 1793.84 145.381C1796.74 139.381 1800.59 134.898 1805.4 131.932C1810.24 128.932 1815.54 127.432 1821.3 127.432C1825.7 127.432 1829.37 128.182 1832.3 129.682C1835.26 131.148 1837.65 132.989 1839.46 135.205C1841.3 137.386 1842.7 139.534 1843.65 141.648H1844.32V102.273H1866.05V207H1844.57V194.42H1843.65C1842.63 196.602 1841.18 198.767 1839.3 200.915C1837.46 203.028 1835.06 204.784 1832.09 206.182C1829.16 207.58 1825.58 208.278 1821.36 208.278ZM1828.26 190.943C1831.77 190.943 1834.74 189.989 1837.16 188.08C1839.61 186.136 1841.49 183.426 1842.78 179.949C1844.11 176.472 1844.78 172.398 1844.78 167.727C1844.78 163.057 1844.13 159 1842.83 155.557C1841.54 152.114 1839.66 149.455 1837.21 147.58C1834.75 145.705 1831.77 144.767 1828.26 144.767C1824.68 144.767 1821.66 145.739 1819.21 147.682C1816.75 149.625 1814.89 152.318 1813.63 155.761C1812.37 159.205 1811.74 163.193 1811.74 167.727C1811.74 172.295 1812.37 176.335 1813.63 179.847C1814.93 183.324 1816.79 186.051 1819.21 188.028C1821.66 189.972 1824.68 190.943 1828.26 190.943ZM1919.75 208.534C1911.67 208.534 1904.72 206.898 1898.89 203.625C1893.1 200.318 1888.63 195.648 1885.49 189.614C1882.36 183.545 1880.79 176.369 1880.79 168.085C1880.79 160.006 1882.36 152.915 1885.49 146.812C1888.63 140.71 1893.04 135.955 1898.74 132.545C1904.46 129.136 1911.18 127.432 1918.88 127.432C1924.07 127.432 1928.89 128.267 1933.36 129.938C1937.86 131.574 1941.78 134.045 1945.12 137.352C1948.49 140.659 1951.12 144.818 1952.99 149.83C1954.87 154.807 1955.81 160.636 1955.81 167.318V173.301H1889.48V159.801H1935.3C1935.3 156.665 1934.62 153.886 1933.25 151.466C1931.89 149.045 1930 147.153 1927.58 145.79C1925.19 144.392 1922.41 143.693 1919.24 143.693C1915.94 143.693 1913 144.46 1910.45 145.994C1907.92 147.494 1905.95 149.523 1904.52 152.08C1903.08 154.602 1902.35 157.415 1902.32 160.517V173.352C1902.32 177.239 1903.03 180.597 1904.46 183.426C1905.93 186.256 1907.99 188.438 1910.65 189.972C1913.31 191.506 1916.46 192.273 1920.11 192.273C1922.53 192.273 1924.75 191.932 1926.76 191.25C1928.77 190.568 1930.49 189.545 1931.92 188.182C1933.36 186.818 1934.45 185.148 1935.2 183.17L1955.35 184.5C1954.32 189.341 1952.23 193.568 1949.06 197.182C1945.92 200.761 1941.86 203.557 1936.88 205.568C1931.94 207.545 1926.23 208.534 1919.75 208.534ZM2035.37 150.852L2015.43 152.08C2015.09 150.375 2014.36 148.841 2013.23 147.477C2012.11 146.08 2010.62 144.972 2008.78 144.153C2006.98 143.301 2004.81 142.875 2002.29 142.875C1998.91 142.875 1996.07 143.591 1993.75 145.023C1991.43 146.42 1990.27 148.295 1990.27 150.648C1990.27 152.523 1991.02 154.108 1992.52 155.403C1994.02 156.699 1996.6 157.739 2000.24 158.523L2014.46 161.386C2022.1 162.955 2027.79 165.477 2031.54 168.955C2035.29 172.432 2037.16 177 2037.16 182.659C2037.16 187.807 2035.65 192.324 2032.61 196.21C2029.61 200.097 2025.49 203.131 2020.24 205.312C2015.02 207.46 2009 208.534 2002.19 208.534C1991.79 208.534 1983.5 206.369 1977.33 202.04C1971.2 197.676 1967.6 191.744 1966.54 184.244L1987.97 183.119C1988.62 186.29 1990.19 188.71 1992.67 190.381C1995.16 192.017 1998.35 192.835 2002.24 192.835C2006.06 192.835 2009.12 192.102 2011.44 190.636C2013.79 189.136 2014.99 187.21 2015.02 184.858C2014.99 182.881 2014.15 181.261 2012.52 180C2010.88 178.705 2008.36 177.716 2004.95 177.034L1991.35 174.324C1983.67 172.79 1977.96 170.131 1974.21 166.347C1970.5 162.562 1968.64 157.739 1968.64 151.875C1968.64 146.83 1970 142.483 1972.73 138.835C1975.49 135.188 1979.36 132.375 1984.34 130.398C1989.35 128.42 1995.21 127.432 2001.93 127.432C2011.85 127.432 2019.66 129.528 2025.35 133.722C2031.08 137.915 2034.42 143.625 2035.37 150.852ZM2050.88 236.455V128.455H2072.36V141.648H2073.33C2074.28 139.534 2075.66 137.386 2077.47 135.205C2079.31 132.989 2081.7 131.148 2084.63 129.682C2087.6 128.182 2091.28 127.432 2095.68 127.432C2101.4 127.432 2106.69 128.932 2111.53 131.932C2116.37 134.898 2120.24 139.381 2123.14 145.381C2126.03 151.347 2127.48 158.83 2127.48 167.83C2127.48 176.591 2126.07 183.989 2123.24 190.023C2120.44 196.023 2116.63 200.574 2111.78 203.676C2106.98 206.744 2101.59 208.278 2095.62 208.278C2091.4 208.278 2087.8 207.58 2084.84 206.182C2081.9 204.784 2079.5 203.028 2077.62 200.915C2075.75 198.767 2074.32 196.602 2073.33 194.42H2072.66V236.455H2050.88ZM2072.2 167.727C2072.2 172.398 2072.85 176.472 2074.15 179.949C2075.44 183.426 2077.32 186.136 2079.77 188.08C2082.23 189.989 2085.21 190.943 2088.72 190.943C2092.27 190.943 2095.27 189.972 2097.72 188.028C2100.18 186.051 2102.03 183.324 2103.3 179.847C2104.59 176.335 2105.24 172.295 2105.24 167.727C2105.24 163.193 2104.61 159.205 2103.35 155.761C2102.09 152.318 2100.23 149.625 2097.77 147.682C2095.32 145.739 2092.3 144.767 2088.72 144.767C2085.18 144.767 2082.18 145.705 2079.72 147.58C2077.3 149.455 2075.44 152.114 2074.15 155.557C2072.85 159 2072.2 163.057 2072.2 167.727ZM2164.4 208.483C2159.39 208.483 2154.93 207.614 2151.01 205.875C2147.09 204.102 2143.98 201.494 2141.7 198.051C2139.45 194.574 2138.32 190.244 2138.32 185.062C2138.32 180.699 2139.13 177.034 2140.73 174.068C2142.33 171.102 2144.51 168.716 2147.27 166.909C2150.03 165.102 2153.17 163.739 2156.68 162.818C2160.23 161.898 2163.94 161.25 2167.83 160.875C2172.4 160.398 2176.08 159.955 2178.88 159.545C2181.67 159.102 2183.7 158.455 2184.96 157.602C2186.22 156.75 2186.85 155.489 2186.85 153.818V153.511C2186.85 150.273 2185.83 147.767 2183.78 145.994C2181.77 144.222 2178.91 143.335 2175.19 143.335C2171.27 143.335 2168.15 144.205 2165.84 145.943C2163.52 147.648 2161.98 149.795 2161.23 152.386L2141.09 150.75C2142.11 145.977 2144.12 141.852 2147.12 138.375C2150.12 134.864 2153.99 132.17 2158.73 130.295C2163.5 128.386 2169.02 127.432 2175.3 127.432C2179.66 127.432 2183.84 127.943 2187.82 128.966C2191.85 129.989 2195.41 131.574 2198.51 133.722C2201.65 135.869 2204.12 138.631 2205.93 142.006C2207.73 145.347 2208.64 149.352 2208.64 154.023V207H2187.98V196.108H2187.36C2186.1 198.562 2184.41 200.727 2182.3 202.602C2180.19 204.443 2177.65 205.892 2174.68 206.949C2171.72 207.972 2168.29 208.483 2164.4 208.483ZM2170.64 193.449C2173.85 193.449 2176.68 192.818 2179.13 191.557C2181.59 190.261 2183.51 188.523 2184.91 186.341C2186.31 184.159 2187.01 181.687 2187.01 178.926V170.591C2186.32 171.034 2185.39 171.443 2184.19 171.818C2183.03 172.159 2181.72 172.483 2180.26 172.79C2178.79 173.062 2177.32 173.318 2175.86 173.557C2174.39 173.761 2173.06 173.949 2171.87 174.119C2169.31 174.494 2167.08 175.091 2165.17 175.909C2163.26 176.727 2161.78 177.835 2160.72 179.233C2159.66 180.597 2159.14 182.301 2159.14 184.347C2159.14 187.312 2160.21 189.58 2162.36 191.148C2164.54 192.682 2167.3 193.449 2170.64 193.449ZM2261.03 208.534C2252.98 208.534 2246.06 206.83 2240.26 203.42C2234.5 199.977 2230.07 195.205 2226.97 189.102C2223.9 183 2222.37 175.977 2222.37 168.034C2222.37 159.989 2223.92 152.932 2227.02 146.864C2230.16 140.761 2234.61 136.006 2240.37 132.597C2246.13 129.153 2252.98 127.432 2260.92 127.432C2267.78 127.432 2273.78 128.676 2278.92 131.165C2284.07 133.653 2288.14 137.148 2291.14 141.648C2294.14 146.148 2295.8 151.432 2296.11 157.5H2275.55C2274.97 153.58 2273.43 150.426 2270.95 148.04C2268.49 145.619 2265.27 144.409 2261.28 144.409C2257.91 144.409 2254.96 145.33 2252.43 147.17C2249.95 148.977 2248 151.619 2246.61 155.097C2245.21 158.574 2244.51 162.784 2244.51 167.727C2244.51 172.739 2245.19 177 2246.55 180.511C2247.95 184.023 2249.91 186.699 2252.43 188.54C2254.96 190.381 2257.91 191.301 2261.28 191.301C2263.77 191.301 2266 190.79 2267.98 189.767C2269.99 188.744 2271.64 187.261 2272.94 185.318C2274.27 183.341 2275.14 180.972 2275.55 178.21H2296.11C2295.76 184.21 2294.13 189.494 2291.2 194.062C2288.3 198.597 2284.29 202.142 2279.18 204.699C2274.07 207.256 2268.01 208.534 2261.03 208.534ZM2345.85 208.534C2337.77 208.534 2330.81 206.898 2324.98 203.625C2319.19 200.318 2314.72 195.648 2311.59 189.614C2308.45 183.545 2306.88 176.369 2306.88 168.085C2306.88 160.006 2308.45 152.915 2311.59 146.812C2314.72 140.71 2319.14 135.955 2324.83 132.545C2330.56 129.136 2337.27 127.432 2344.98 127.432C2350.16 127.432 2354.98 128.267 2359.45 129.938C2363.95 131.574 2367.87 134.045 2371.21 137.352C2374.59 140.659 2377.21 144.818 2379.09 149.83C2380.96 154.807 2381.9 160.636 2381.9 167.318V173.301H2315.58V159.801H2361.39C2361.39 156.665 2360.71 153.886 2359.35 151.466C2357.98 149.045 2356.09 147.153 2353.67 145.79C2351.29 144.392 2348.51 143.693 2345.34 143.693C2342.03 143.693 2339.1 144.46 2336.54 145.994C2334.02 147.494 2332.04 149.523 2330.61 152.08C2329.18 154.602 2328.44 157.415 2328.41 160.517V173.352C2328.41 177.239 2329.13 180.597 2330.56 183.426C2332.02 186.256 2334.09 188.438 2336.75 189.972C2339.4 191.506 2342.56 192.273 2346.21 192.273C2348.63 192.273 2350.84 191.932 2352.85 191.25C2354.87 190.568 2356.59 189.545 2358.02 188.182C2359.45 186.818 2360.54 185.148 2361.29 183.17L2381.44 184.5C2380.42 189.341 2378.32 193.568 2375.15 197.182C2372.01 200.761 2367.96 203.557 2362.98 205.568C2358.04 207.545 2352.33 208.534 2345.85 208.534ZM2461.47 150.852L2441.52 152.08C2441.18 150.375 2440.45 148.841 2439.33 147.477C2438.2 146.08 2436.72 144.972 2434.88 144.153C2433.07 143.301 2430.9 142.875 2428.38 142.875C2425.01 142.875 2422.16 143.591 2419.84 145.023C2417.52 146.42 2416.37 148.295 2416.37 150.648C2416.37 152.523 2417.12 154.108 2418.62 155.403C2420.12 156.699 2422.69 157.739 2426.34 158.523L2440.55 161.386C2448.19 162.955 2453.88 165.477 2457.63 168.955C2461.38 172.432 2463.26 177 2463.26 182.659C2463.26 187.807 2461.74 192.324 2458.71 196.21C2455.71 200.097 2451.58 203.131 2446.33 205.312C2441.12 207.46 2435.1 208.534 2428.28 208.534C2417.88 208.534 2409.6 206.369 2403.43 202.04C2397.29 197.676 2393.69 191.744 2392.64 184.244L2414.06 183.119C2414.71 186.29 2416.28 188.71 2418.77 190.381C2421.26 192.017 2424.44 192.835 2428.33 192.835C2432.15 192.835 2435.22 192.102 2437.54 190.636C2439.89 189.136 2441.08 187.21 2441.12 184.858C2441.08 182.881 2440.25 181.261 2438.61 180C2436.97 178.705 2434.45 177.716 2431.04 177.034L2417.44 174.324C2409.77 172.79 2404.06 170.131 2400.31 166.347C2396.59 162.562 2394.73 157.739 2394.73 151.875C2394.73 146.83 2396.1 142.483 2398.83 138.835C2401.59 135.188 2405.46 132.375 2410.43 130.398C2415.44 128.42 2421.31 127.432 2428.02 127.432C2437.94 127.432 2445.75 129.528 2451.44 133.722C2457.17 137.915 2460.51 143.625 2461.47 150.852Z" fill="white"/>
</svg>
