<svg width="46" height="52" viewBox="0 0 46 52" fill="none" xmlns="http://www.w3.org/2000/svg">
<path d="M22.3557 12.581C25.235 12.581 27.7608 11.4596 29.9332 9.21664C32.1056 6.97369 33.1919 4.36554 33.1919 1.39218C33.1919 1.06562 33.166 0.601558 33.1143 0C32.735 0.0515621 32.4505 0.0945305 32.2608 0.128905C29.6057 0.507027 27.2695 1.80467 25.2522 4.02179C23.235 6.23896 22.2264 8.61082 22.2264 11.1374C22.2264 11.4295 22.2695 11.9108 22.3557 12.581ZM32.6746 52C34.7263 52 36.9936 50.5993 39.4764 47.7977C41.9592 44.9962 43.8556 41.7048 45.166 37.9237C40.2867 35.4143 37.847 31.8136 37.847 27.1214C37.847 23.2028 39.8212 19.8513 43.7695 17.0669C41.0281 13.6467 37.4074 11.9365 32.9074 11.9365C31.0108 11.9365 29.2781 12.2201 27.7091 12.7873L26.7264 13.1482L25.4074 13.6638C24.5453 13.9904 23.7608 14.1537 23.0539 14.1537C22.5022 14.1537 21.778 13.9646 20.8815 13.5865L19.8729 13.174L18.916 12.7873C17.5194 12.2029 16.0195 11.9107 14.416 11.9107C10.1229 11.9107 6.67466 13.3545 4.07119 16.242C1.46772 19.1294 0.166016 22.9364 0.166016 27.6628C0.166016 34.3143 2.2522 40.4588 6.42464 46.0962C9.32121 50.0321 11.9678 52 14.3643 52C15.3816 52 16.3902 51.8023 17.3901 51.407L18.6574 50.8914L19.6661 50.5305C21.0798 50.032 22.3815 49.7828 23.5712 49.7828C24.8298 49.7828 26.2781 50.1009 27.916 50.7367L28.7177 51.0461C30.3901 51.682 31.7092 52 32.6746 52Z" fill="black"/>
</svg>
