<svg width="90" height="34" viewBox="0 0 90 34" fill="none" xmlns="http://www.w3.org/2000/svg">
<path d="M21.0736 12.0256L22.1987 14.3715C22.8907 15.8904 23.4142 17.4946 23.6325 19.1493C23.8507 20.804 23.7549 22.5208 23.2376 24.0983C22.652 25.8888 21.543 27.4823 20.1855 28.7865C18.5778 30.3303 16.5123 31.5193 14.2871 31.6062C12.8365 31.663 11.392 31.2486 10.1082 30.5726C9.02841 30.0047 8.04268 29.247 7.25658 28.3145C6.47048 27.382 5.88579 26.2712 5.61518 25.0814C5.28247 23.6174 5.43241 22.0612 5.93637 20.6452C6.29659 19.6337 6.83071 18.6906 7.21133 17.6853C7.62656 16.5869 7.85903 15.414 8.40912 14.3777C8.90864 13.4372 9.65657 12.6343 10.0541 11.6467C10.2918 11.0567 10.3948 10.4223 10.5483 9.8066C10.7018 9.19085 10.9165 8.568 11.3344 8.08889C11.8374 7.51218 12.5942 7.1981 13.3573 7.11026C14.1203 7.02242 14.8887 7.14131 15.6357 7.31166C16.2302 7.4474 16.8175 7.61598 17.3925 7.82005C17.8831 7.99483 18.3684 8.19803 18.7943 8.49969C19.371 8.91138 19.812 9.48986 20.1633 10.1056C20.5147 10.7214 20.7826 11.3806 21.0772 12.0256H21.0736Z" fill="#020204"/>
<path d="M14.687 31.6205L16.5147 31.7979L18.0993 32.1102C18.9191 32.309 19.7363 32.5538 20.5791 32.5867C20.801 32.5929 21.0245 32.5831 21.2419 32.5352C21.4604 32.4902 21.6658 32.3962 21.8426 32.2602C22.1017 32.0535 22.2658 31.742 22.327 31.4173C22.3882 31.0926 22.3501 30.7519 22.256 30.436C22.0653 29.8016 21.6571 29.2604 21.3182 28.6917L20.7415 27.7113C20.5312 27.3954 20.2801 27.0991 19.9607 26.895C19.5198 26.6111 18.9732 26.5179 18.4506 26.5703C17.9281 26.6226 17.4285 26.8098 16.9618 27.052C16.3088 27.3892 15.6931 27.8541 15.3382 28.4983C15.214 28.7218 15.1253 28.9632 15.0188 29.1965C14.9123 29.4299 14.7908 29.6597 14.6124 29.8442C14.4137 30.0483 14.1555 30.1867 13.9497 30.3854C13.8467 30.483 13.7571 30.5984 13.7039 30.7314C13.6506 30.8645 13.6382 31.0154 13.6861 31.1502C13.7206 31.2424 13.7784 31.324 13.8538 31.3871C13.9293 31.4497 14.0156 31.4978 14.1085 31.5291C14.293 31.5939 14.4918 31.6036 14.687 31.6151V31.6205Z" fill="#020204"/>
<path d="M12.8747 31.5805C12.3654 31.5921 11.8615 31.6835 11.3619 31.7864L9.93879 32.1182C9.14382 32.3267 8.34796 32.5769 7.52548 32.5946C7.30899 32.6028 7.09233 32.584 6.88046 32.5388C6.67019 32.49 6.46523 32.403 6.29665 32.2682C6.03048 32.0623 5.87433 31.7518 5.81311 31.427C5.75189 31.1023 5.78915 30.7643 5.88409 30.4475C6.07307 29.814 6.47676 29.2719 6.80859 28.6997L7.36756 27.721C7.57162 27.4052 7.8165 27.0999 8.13059 26.903C8.55824 26.6217 9.09147 26.5268 9.60075 26.5765C10.11 26.6262 10.598 26.8142 11.047 27.06C11.6813 27.4149 12.2598 27.8834 12.6263 28.5062C12.8924 28.9427 13.0317 29.4423 13.3325 29.8504C13.494 30.0704 13.698 30.2603 13.8329 30.4981C13.9026 30.6161 13.9462 30.7477 13.9607 30.884C13.9731 31.0216 13.9429 31.1617 13.8675 31.2744C13.8156 31.3489 13.7473 31.4105 13.6679 31.4545C13.5886 31.4983 13.503 31.5295 13.4141 31.5468C13.2367 31.5841 13.0548 31.5779 12.8747 31.5823V31.5805ZM10.0195 10.3754L9.85273 5.29325C9.88555 4.4477 10.024 3.5924 10.3993 2.8338C10.7772 2.06886 11.382 1.43925 12.1312 1.03094C12.841 0.652972 13.6395 0.491473 14.4354 0.500346C15.5151 0.51188 16.5984 0.8375 17.4733 1.47188C18.0216 1.86937 18.483 2.38042 18.8467 2.9518C19.1573 3.43979 19.3986 3.97215 19.5494 4.52934C19.86 5.68275 19.7863 6.88054 19.8467 8.06323C19.9043 9.18471 20.0835 10.3035 20.0223 11.4348C20.009 11.6779 19.9824 11.9272 19.8742 12.1463C19.7629 12.3581 19.592 12.5327 19.3826 12.6485C19.1735 12.7626 18.9453 12.8375 18.7092 12.8694C18.239 12.9422 17.7599 12.8943 17.2861 12.9377C16.5993 13.0016 15.9446 13.2571 15.2631 13.3618C14.4504 13.4861 13.6217 13.3973 12.8019 13.3654L11.826 13.3077C11.4995 13.2669 11.1738 13.188 10.8828 13.0416C10.7054 12.9457 10.5395 12.8215 10.4064 12.6689C10.2733 12.5163 10.1712 12.3344 10.1189 12.1392C10.0408 11.8447 10.0763 11.5341 10.0834 11.2298C10.0899 10.9508 10.0718 10.6717 10.0293 10.3958L10.0195 10.3754Z" fill="#020204"/>
<path d="M11.3198 10.0349C11.3526 10.7749 11.216 11.5219 10.9223 12.2024C10.7653 12.5662 10.5639 12.9122 10.3492 13.245C9.97653 13.8243 9.55065 14.3877 9.34658 15.0461C9.22237 15.4453 9.18156 15.8712 9.23125 16.2882C8.78241 16.9472 8.39456 17.6456 8.07251 18.375C7.58452 19.4796 7.25092 20.6552 7.13203 21.8583C6.9883 23.3312 7.17638 24.8439 7.75752 26.2031C8.17808 27.1862 8.80448 28.0859 9.62074 28.7868C10.0315 29.1417 10.4876 29.4469 10.9756 29.6865C12.6666 30.5178 14.7552 30.5187 16.4179 29.6333C17.2874 29.1701 18.0203 28.4931 18.7274 27.8082C19.1533 27.3956 19.5765 26.9742 19.9021 26.4773C20.5276 25.5226 20.745 24.3621 20.8808 23.2282C21.1177 21.2461 21.1248 19.1531 20.2561 17.3547C19.9563 16.7347 19.5594 16.1665 19.0805 15.6716C18.9492 14.8074 18.699 13.9618 18.337 13.166L17.5066 11.4669C17.3007 10.9931 17.1304 10.4847 16.7702 10.113C16.3975 9.72615 15.8563 9.5345 15.3213 9.4857C14.7863 9.4369 14.2566 9.51764 13.7172 9.6037L11.3305 10.034L11.3198 10.0349Z" fill="#FDFDFB"/>
<g filter="url(#filter0_f_699_13609)">
<path d="M11.0572 12.0112C11.2464 12.56 11.6273 13.0283 12.0781 13.3942C12.2281 13.5159 12.3873 13.628 12.5633 13.7073C12.7394 13.7865 12.9336 13.8317 13.1259 13.8153C13.3143 13.7993 13.4934 13.7253 13.6582 13.6323C13.8231 13.5394 13.9756 13.4271 14.1353 13.3259C14.4091 13.1526 14.7021 13.0125 14.9863 12.8569C15.3288 12.6695 15.6609 12.4568 15.9493 12.1946C16.0814 12.074 16.2045 11.9425 16.3503 11.8389C16.4961 11.7353 16.6707 11.6604 16.8491 11.6726C16.9829 11.6817 17.1084 11.7386 17.2394 11.7668C17.3061 11.7809 17.3728 11.7879 17.4391 11.7777C17.5055 11.7675 17.5703 11.7395 17.6167 11.691C17.6736 11.6318 17.6985 11.5465 17.6945 11.4643C17.6905 11.382 17.663 11.3028 17.6245 11.2301C17.5478 11.0847 17.4317 10.9595 17.38 10.8036C17.334 10.6647 17.3433 10.5146 17.3473 10.3686C17.3513 10.2225 17.3482 10.0696 17.2806 9.93993C17.2293 9.84101 17.1433 9.76266 17.0448 9.71054C16.9463 9.65842 16.8359 9.63274 16.7252 9.62118C16.5035 9.6004 16.2813 9.64341 16.059 9.65597C15.7638 9.67264 15.4675 9.63574 15.1725 9.65353C14.8046 9.67575 14.4438 9.78244 14.0751 9.78311C13.6543 9.78389 13.234 9.64619 12.8184 9.71198C12.64 9.74021 12.47 9.80512 12.2987 9.86224C12.1274 9.91937 11.9505 9.96971 11.77 9.96715C11.5651 9.96415 11.3666 9.89325 11.1621 9.87858C11.0598 9.87124 10.9552 9.87858 10.8591 9.91447C10.7631 9.95037 10.6763 10.0172 10.6293 10.1082C10.6023 10.1604 10.589 10.219 10.5864 10.2777C10.5838 10.3364 10.592 10.3951 10.6062 10.4522C10.6345 10.5662 10.6867 10.6725 10.7284 10.7819C10.8833 11.1769 10.9165 11.6096 11.0548 12.0106L11.0572 12.0112Z" fill="black" fill-opacity="0.26"/>
</g>
<g opacity="0.3" filter="url(#filter1_f_699_13609)">
<path d="M10.5307 10.447C10.8983 10.6743 11.2283 10.9531 11.5053 11.2713C11.7624 11.5665 11.981 11.9013 12.3166 12.1199C12.5537 12.2743 12.8384 12.3613 13.1273 12.3877C13.4665 12.4188 13.8097 12.3686 14.1366 12.28C14.4397 12.1979 14.7327 12.0825 15.0015 11.9299C15.5125 11.6396 15.9395 11.2141 16.5019 11.0233C16.6249 10.9816 16.753 10.9518 16.8716 10.9004C16.9902 10.849 17.1017 10.772 17.1583 10.6631C17.2139 10.5585 17.2106 10.4377 17.2284 10.3227C17.2472 10.1999 17.2899 10.0809 17.3133 9.95872C17.3366 9.83649 17.3394 9.70566 17.2821 9.59326C17.2346 9.5001 17.1482 9.4266 17.0488 9.37982C16.9493 9.33303 16.8376 9.31184 16.726 9.30673C16.5031 9.29649 16.2828 9.34921 16.0605 9.36794C15.766 9.39272 15.4695 9.3577 15.174 9.36589C14.8063 9.37613 14.444 9.45291 14.0766 9.46878C13.6574 9.487 13.2393 9.42599 12.8199 9.41247C12.6385 9.40654 12.4559 9.4094 12.2771 9.43837C12.0983 9.46734 11.9228 9.52252 11.7714 9.61506C11.6247 9.70484 11.505 9.82666 11.3705 9.93138C11.3033 9.9838 11.2318 10.0322 11.1534 10.0691C11.0749 10.1059 10.9889 10.131 10.9011 10.1349C10.8559 10.1369 10.8102 10.1334 10.7655 10.1397C10.728 10.1455 10.6922 10.1581 10.66 10.1767C10.6278 10.1954 10.6 10.2197 10.5781 10.2483C10.5562 10.2769 10.5406 10.3092 10.5323 10.3434C10.524 10.3775 10.5232 10.4129 10.5298 10.4473L10.5307 10.447Z" fill="black"/>
</g>
<path d="M11.4873 5.42737C11.2876 5.44228 11.0993 5.52637 10.9549 5.66515C10.8103 5.8009 10.7083 5.97746 10.6444 6.16556C10.5184 6.54175 10.5557 6.94898 10.5761 7.34558C10.6027 7.70403 10.6293 8.06869 10.7535 8.41028C10.8186 8.57812 10.9159 8.73156 11.0401 8.86189C11.165 8.99237 11.3234 9.08598 11.4979 9.1325C11.6626 9.17248 11.8351 9.16635 11.9966 9.11476C12.1563 9.06419 12.3035 8.9728 12.4242 8.8548C12.5999 8.68267 12.717 8.45819 12.7862 8.22218C12.8496 7.98448 12.8777 7.73875 12.8696 7.49288C12.8652 7.18589 12.8252 6.87712 12.7276 6.58522C12.63 6.29331 12.4792 6.01738 12.2636 5.79734C12.1598 5.69087 12.0418 5.59684 11.9087 5.53118C11.7756 5.46552 11.6248 5.42826 11.4775 5.43625L11.4873 5.42737Z" fill="url(#paint0_radial_699_13609)"/>
<path d="M14.9907 5.42731C14.6669 5.62073 14.4167 5.93127 14.296 6.28794C14.1452 6.73511 14.2011 7.2302 14.3519 7.67737C14.5063 8.13697 14.7707 8.57347 15.1699 8.84852C15.3695 8.98813 15.6 9.07708 15.8416 9.10761C16.0838 9.13744 16.3295 9.09417 16.547 8.98339C16.8078 8.84675 17.0083 8.60808 17.1307 8.34013C17.2532 8.07218 17.3082 7.77672 17.3259 7.48305C17.3481 7.10774 17.3118 6.72623 17.1866 6.37134C17.0518 5.98805 16.8051 5.63493 16.4644 5.41578C16.2932 5.30576 16.1007 5.22945 15.8984 5.20106C15.6961 5.17267 15.4885 5.19042 15.2977 5.25963C15.1886 5.29955 15.0848 5.35544 14.9925 5.42642L14.9907 5.42731Z" fill="url(#paint1_radial_699_13609)"/>
<g opacity="0.3" filter="url(#filter2_f_699_13609)">
<path d="M11.4193 8.62724L10.8485 9.14792C10.7481 9.24905 10.6474 9.3573 10.6024 9.49244C10.5624 9.61247 10.5699 9.74283 10.5501 9.86808C10.5435 9.91098 10.5335 9.95366 10.5332 9.997C10.5329 10.0187 10.5358 10.0404 10.5419 10.0612C10.5482 10.082 10.5586 10.1016 10.5736 10.1175C10.5982 10.1438 10.6334 10.1582 10.6687 10.1653C10.7041 10.1724 10.7404 10.1733 10.7763 10.1772C10.9381 10.1946 11.0873 10.2731 11.2213 10.3655L11.6158 10.6528C11.9192 10.8455 12.2819 10.9312 12.6412 10.9449C13.0005 10.9586 13.3589 10.9038 13.7114 10.8332C13.9915 10.7772 14.2709 10.7109 14.5366 10.606C14.9437 10.4456 15.3106 10.1985 15.6611 9.93677C15.8204 9.81785 15.9774 9.69527 16.1204 9.55723C16.169 9.51033 16.216 9.46166 16.268 9.41876C16.32 9.37586 16.3778 9.33852 16.4421 9.31784C16.5399 9.28639 16.6461 9.29539 16.7475 9.31229C16.8238 9.32507 16.9004 9.34229 16.9777 9.33896C17.0164 9.3374 17.0552 9.33074 17.0911 9.31629C17.127 9.30184 17.1602 9.27961 17.1848 9.24961C17.2169 9.20949 17.2342 9.15959 17.2339 9.10824C17.2341 9.05734 17.2184 9.00711 17.1928 8.96321C17.1411 8.87541 17.0519 8.81617 16.9588 8.77483C16.8315 8.71815 16.6937 8.69036 16.5581 8.65747C16.1419 8.557 15.7373 8.40852 15.3538 8.21803C15.1631 8.12334 14.9777 8.01843 14.7901 7.91796C14.5972 7.8146 14.4006 7.71525 14.1911 7.65179C13.7229 7.50987 13.2109 7.55643 12.7489 7.71691C12.2354 7.89518 11.7712 8.21292 11.419 8.62691L11.4193 8.62724Z" fill="black"/>
</g>
<path d="M12.4142 8.04032C12.6094 7.81851 12.7451 7.55057 12.9332 7.32166C13.0273 7.20809 13.1373 7.10428 13.2642 7.03064C13.3919 6.95427 13.5398 6.91839 13.6883 6.92772C13.8524 6.94192 14.0059 7.02353 14.1257 7.13621C14.2455 7.24889 14.3342 7.39086 14.4052 7.53903C14.4735 7.68099 14.5276 7.83182 14.6252 7.95603C14.7299 8.08735 14.8763 8.17784 15.0085 8.28076C15.0757 8.33112 15.1367 8.3892 15.1904 8.45378C15.2436 8.51944 15.2835 8.59573 15.3004 8.67825C15.3173 8.76076 15.3093 8.85037 15.28 8.93022C15.2507 9.01007 15.2001 9.08282 15.1398 9.14315C15.0156 9.26115 14.8497 9.32506 14.6802 9.34901C14.3431 9.39692 14.0006 9.29576 13.6599 9.30463C13.3192 9.31351 12.9767 9.43595 12.6324 9.42353C12.4585 9.42205 12.2886 9.37096 12.1427 9.27626C12.0712 9.22722 12.0107 9.16373 11.9652 9.08992C11.9209 9.01628 11.8943 8.93021 11.8907 8.84504C11.8892 8.7622 11.9062 8.68007 11.9404 8.6046C11.9732 8.52918 12.0202 8.45999 12.0717 8.39611C12.1764 8.26834 12.3024 8.16186 12.4133 8.03854L12.4142 8.04032Z" fill="url(#paint2_radial_699_13609)"/>
<g filter="url(#filter3_f_699_13609)">
<path d="M16.2627 1.92527C15.9778 2.12631 16.1023 2.3773 16.2248 2.62931C16.3474 2.88132 15.9554 3.60764 15.9512 3.63889C15.947 3.67014 16.7227 3.27073 16.9341 3.01117C17.1838 2.70473 17.8148 3.42581 17.7806 3.31594C17.7808 3.11963 16.5478 1.72422 16.2629 1.92527H16.2627Z" fill="#7C7C7C"/>
</g>
<path d="M15.7029 6.36031C15.5868 6.36864 15.4735 6.40832 15.375 6.47144C15.2766 6.53457 15.1924 6.61759 15.1264 6.71372C14.9945 6.90577 14.9364 7.14127 14.9272 7.37388C14.9202 7.54858 14.9394 7.72562 14.9974 7.89066C15.0554 8.0557 15.153 8.20852 15.2878 8.31999C15.4256 8.43412 15.6008 8.5027 15.7796 8.51114C15.9584 8.51959 16.1397 8.46813 16.2864 8.36589C16.4034 8.28442 16.4977 8.17229 16.565 8.04659C16.6322 7.92089 16.6728 7.78175 16.6911 7.64038C16.7238 7.39066 16.6869 7.12993 16.5714 6.9061C16.456 6.68227 16.2602 6.49789 16.0239 6.41087C15.9216 6.37309 15.8116 6.35353 15.7029 6.36131V6.36031Z" fill="#020204"/>
<g filter="url(#filter4_f_699_13609)">
<path d="M15.9786 7.12222C15.8823 7.16023 15.73 7.13633 15.6878 7.2308C15.6628 7.28681 15.6982 7.37894 15.7549 7.40195C15.8696 7.44863 16.0474 7.36416 16.0938 7.24914C16.1138 7.19912 16.0835 7.12022 16.0338 7.0991C16.0155 7.09132 15.9971 7.11466 15.9787 7.12199L15.9786 7.12222Z" fill="#141413"/>
</g>
<g filter="url(#filter5_f_699_13609)">
<path d="M16.4243 7.37214C16.5532 7.24322 16.3325 6.90092 16.1603 6.76088C16.0356 6.65942 15.6724 6.55306 15.688 6.66364C15.7035 6.77422 15.8658 6.91548 15.9764 7.02339C16.1111 7.1562 16.3631 7.43349 16.4243 7.37214Z" fill="url(#paint3_linear_699_13609)"/>
</g>
<mask id="mask0_699_13609" style="mask-type:luminance" maskUnits="userSpaceOnUse" x="14" y="5" width="4" height="5">
<path d="M14.994 5.42784C14.7109 5.66423 14.4152 5.93907 14.2994 6.28915C14.1538 6.72926 14.1179 7.28016 14.355 7.67837C14.7906 8.40987 15.7313 9.21762 16.5499 8.98423C17.0917 8.82975 17.2286 8.03956 17.3279 7.48388C17.3935 7.11635 17.3941 6.68447 17.189 6.37251C16.7875 5.76203 16.0301 5.27292 15.2996 5.26114C15.1836 5.25925 15.0829 5.35338 14.994 5.42784Z" fill="white"/>
</mask>
<g mask="url(#mask0_699_13609)">
<path d="M13.8296 6.55299C14.0955 6.33238 14.4022 6.16623 14.7323 6.06398C15.4086 5.85505 16.177 5.93762 16.7747 6.31682C16.9811 6.44774 17.1651 6.61044 17.3571 6.76181C17.5491 6.91318 17.7528 7.05521 17.9835 7.13634C18.1079 7.18013 18.2411 7.20558 18.3725 7.19191C18.4911 7.17947 18.6058 7.13501 18.7041 7.06744C18.8023 6.99987 18.8847 6.90985 18.9464 6.80771C19.0699 6.60356 19.1097 6.35594 19.0884 6.11833C19.0458 5.643 18.7777 5.22334 18.5529 4.80247C18.4826 4.67066 18.4156 4.53651 18.3307 4.41349C18.0703 4.03606 17.6557 3.78712 17.221 3.64131C16.7862 3.49549 16.3268 3.44281 15.8718 3.38547C15.6688 3.35991 15.4635 3.33323 15.2605 3.35768C15.0271 3.3858 14.8075 3.47993 14.5798 3.53828C14.4717 3.56607 14.3615 3.58551 14.2544 3.61652C14.1472 3.64753 14.0418 3.69098 13.9546 3.76056C13.8274 3.86236 13.7474 4.01506 13.7127 4.17432C13.678 4.33358 13.686 4.49928 13.7114 4.66021C13.7623 4.98206 13.8825 5.29636 13.8712 5.62199C13.8634 5.8456 13.7932 6.06521 13.8017 6.28881C13.8043 6.3555 13.8136 6.41962 13.8295 6.4833" fill="url(#paint4_linear_699_13609)"/>
</g>
<g filter="url(#filter6_f_699_13609)">
<path d="M16.0569 4.51221C16.0039 4.57889 15.956 4.65135 15.918 4.73115C16.1565 4.78249 16.3847 4.88074 16.5881 5.01599C16.9821 5.27761 17.2813 5.66014 17.4911 6.08569C17.54 6.03145 17.5847 5.97322 17.6231 5.90853C17.4122 5.46532 17.107 5.06445 16.6994 4.79383C16.5036 4.6638 16.2854 4.56555 16.057 4.51265L16.0569 4.51221Z" fill="url(#paint5_linear_699_13609)"/>
</g>
<g filter="url(#filter7_f_699_13609)">
<path d="M11.4623 4.72936C11.4354 4.7288 11.4093 4.73125 11.3823 4.73247L11.3301 4.73558C11.4871 4.74981 11.6433 4.79204 11.7851 4.85561C11.9785 4.9423 12.1489 5.06599 12.2991 5.2068C12.5774 5.46742 12.7842 5.78916 12.9242 6.13035C12.89 5.87253 12.8125 5.62233 12.6951 5.39029C12.6402 5.32694 12.5833 5.26471 12.5215 5.20692C12.3714 5.06622 12.2007 4.94263 12.0075 4.85572C11.8385 4.77982 11.6503 4.73258 11.4622 4.72925L11.4623 4.72936Z" fill="url(#paint6_linear_699_13609)"/>
</g>
<path d="M11.012 7.06688C10.9703 7.31531 10.9694 7.57793 11.0546 7.8166C11.1132 7.97361 11.2028 8.11724 11.3181 8.23894C11.3926 8.32767 11.4778 8.39242 11.5842 8.43945C11.6828 8.48949 11.7957 8.50393 11.9037 8.48028C12.0018 8.45286 12.0883 8.39431 12.1503 8.31346C12.2124 8.23361 12.2568 8.14046 12.2861 8.04464C12.3748 7.76072 12.3606 7.4484 12.2727 7.1636C12.2089 6.95598 12.1024 6.75546 11.9356 6.61616C11.8557 6.54962 11.7635 6.49727 11.6632 6.4742C11.5629 6.45113 11.4529 6.45647 11.3589 6.49906C11.2549 6.55053 11.1709 6.63511 11.1202 6.7395C11.067 6.84153 11.0404 6.95509 11.0208 7.06777L11.012 7.06688Z" fill="#020204"/>
<g filter="url(#filter8_f_699_13609)">
<path d="M11.5381 6.8864C11.565 6.95687 11.6553 6.98243 11.7048 7.03922C11.753 7.09445 11.8034 7.15147 11.8299 7.21982C11.8804 7.35051 11.7799 7.54434 11.8854 7.63658C11.9186 7.66548 11.9849 7.66614 12.0175 7.63658C12.1447 7.52078 12.1164 7.28717 12.0661 7.12257C12.0206 6.9732 11.9076 6.83184 11.7683 6.76082C11.7038 6.72803 11.6071 6.70081 11.552 6.74748C11.5165 6.77749 11.5216 6.84306 11.5381 6.8864Z" fill="url(#paint7_linear_699_13609)"/>
</g>
<path d="M10.5418 10.1695C10.5485 10.2023 10.561 10.2339 10.5781 10.2628C10.6077 10.3123 10.6508 10.3524 10.6974 10.3862C10.744 10.42 10.7944 10.4484 10.8432 10.479C11.1026 10.642 11.3139 10.8713 11.5017 11.1133C11.7536 11.438 11.9765 11.7984 12.313 12.0346C12.5506 12.2013 12.8349 12.2963 13.1236 12.3253C13.4626 12.3594 13.806 12.3046 14.133 12.2084C14.4359 12.1192 14.729 11.9939 14.9978 11.8283C15.5091 11.5131 15.9358 11.0511 16.4982 10.844C16.6212 10.7987 16.7494 10.7664 16.8678 10.7106C16.9863 10.6548 17.0979 10.5712 17.1546 10.453C17.2101 10.3394 17.2068 10.2083 17.2246 10.0835C17.2435 9.95009 17.2862 9.82095 17.3095 9.68825C17.3328 9.55556 17.3356 9.41352 17.2784 9.2915C17.2308 9.19036 17.1445 9.11056 17.045 9.05977C16.9455 9.00898 16.8338 8.98598 16.7222 8.98042C16.4993 8.96931 16.279 9.02654 16.0568 9.04688C15.7622 9.07378 15.4657 9.03599 15.1702 9.04466C14.8026 9.05577 14.4403 9.13857 14.0728 9.15635C13.6536 9.17669 13.2354 9.1119 12.8161 9.09523C12.6345 9.08789 12.4516 9.08967 12.2724 9.12023C12.0933 9.1508 11.9173 9.21181 11.7679 9.31506C11.6223 9.41575 11.506 9.55289 11.3722 9.66892C11.3053 9.72693 11.2333 9.78005 11.1537 9.81862C11.0741 9.85718 10.9862 9.8813 10.8977 9.87941C10.8532 9.8783 10.8054 9.87085 10.7621 9.88463C10.735 9.89319 10.7109 9.90986 10.6905 9.92976C10.67 9.94965 10.6533 9.97277 10.6374 9.99644C10.6004 10.0513 10.5682 10.1093 10.541 10.1696L10.5418 10.1695Z" fill="url(#paint8_radial_699_13609)"/>
<g filter="url(#filter9_f_699_13609)">
<path d="M12.1833 10.6215C12.1417 10.8008 12.1681 10.9892 12.2573 11.1503C12.3465 11.3113 12.4922 11.4336 12.6663 11.4936C12.8861 11.5669 13.1338 11.5309 13.3392 11.4238C13.4581 11.3615 13.567 11.2742 13.6359 11.1588C13.6708 11.1012 13.6937 11.0371 13.7032 10.9703C13.7121 10.9037 13.706 10.8348 13.6826 10.772C13.6571 10.7031 13.6115 10.6422 13.5553 10.5946C13.499 10.547 13.4325 10.5126 13.3627 10.4895C13.2228 10.4432 13.0726 10.4423 12.9254 10.4494C12.7025 10.4602 12.4807 10.4881 12.2621 10.5331" fill="#D9B30D"/>
</g>
<g filter="url(#filter10_f_699_13609)">
<path d="M11.4649 9.24101L11.0317 9.52585C10.9587 9.57764 10.8835 9.63366 10.845 9.71434C10.8177 9.77158 10.8114 9.83659 10.8117 9.89994C10.8119 9.96329 10.815 10.0271 10.8065 10.0889C10.801 10.1318 10.7894 10.174 10.7874 10.2172C10.7863 10.2389 10.788 10.2606 10.7937 10.2817C10.7991 10.3028 10.8096 10.3222 10.8242 10.3383C10.8434 10.3586 10.8696 10.3712 10.8965 10.3794C10.9234 10.3876 10.9509 10.3916 10.9783 10.3983C11.1088 10.429 11.2224 10.5091 11.3221 10.5988L11.6155 10.8739C11.8975 11.1033 12.2712 11.1985 12.6335 11.2044C12.9958 11.2102 13.3564 11.1343 13.711 11.0543L14.5362 10.8272C14.9477 10.6755 15.3297 10.4457 15.6607 10.1579C15.8107 10.0274 15.9515 9.88405 16.12 9.77836C16.2689 9.68478 16.436 9.62299 16.5875 9.53352C16.601 9.52552 16.6145 9.5173 16.6266 9.50718C16.6387 9.49707 16.6495 9.48518 16.6566 9.47106C16.6688 9.44661 16.6688 9.41772 16.661 9.39149C16.6533 9.36526 16.6381 9.34214 16.621 9.32103C16.6021 9.29769 16.5807 9.27635 16.5577 9.25679C16.3994 9.1212 16.1846 9.07208 15.9769 9.05563C15.7692 9.03918 15.559 9.05085 15.3545 9.01651C15.1611 8.98317 14.9774 8.91204 14.7908 8.85236C14.5951 8.78905 14.3949 8.74039 14.1919 8.70677C13.7146 8.62898 13.2231 8.64387 12.7497 8.74234C12.2987 8.83625 11.8639 9.00573 11.4671 9.24023L11.4649 9.24101Z" fill="#604405"/>
</g>
<path d="M11.4172 8.73807C11.2027 8.88255 11.0097 9.05848 10.8464 9.25874C10.753 9.37322 10.6681 9.49769 10.6211 9.63794C10.5841 9.74819 10.5715 9.86489 10.5482 9.9788C10.5393 10.0215 10.5293 10.0644 10.5293 10.1077C10.5294 10.1295 10.5322 10.1514 10.5389 10.1722C10.5455 10.193 10.5564 10.2124 10.5715 10.2281C10.5965 10.2541 10.6315 10.2681 10.6669 10.2754C10.7022 10.2828 10.7385 10.2838 10.7742 10.2879C10.9359 10.3062 11.0848 10.3848 11.2188 10.477L11.6138 10.7635C11.9176 10.9558 12.28 11.0412 12.6392 11.0551C12.9984 11.0689 13.3568 11.0144 13.7095 10.9439C13.9896 10.888 14.269 10.8217 14.5347 10.7168C14.9417 10.5563 15.3086 10.3092 15.6592 10.0475C15.8184 9.92857 15.9755 9.80598 16.1185 9.66795C16.1671 9.62105 16.2141 9.57237 16.2661 9.52947C16.3181 9.48657 16.3759 9.44923 16.4401 9.42856C16.5379 9.39711 16.6442 9.40611 16.7455 9.423C16.8219 9.43579 16.8985 9.45301 16.9758 9.44968C17.0145 9.44812 17.0533 9.44145 17.0892 9.42701C17.1251 9.41256 17.1583 9.39033 17.1829 9.36032C17.2149 9.32021 17.2323 9.27031 17.232 9.21896C17.2322 9.16806 17.2164 9.11782 17.1909 9.07392C17.1392 8.98612 17.0499 8.92689 16.9569 8.88555C16.8296 8.82887 16.6917 8.80108 16.5562 8.76819C16.1399 8.66772 15.7354 8.51924 15.3519 8.32875C15.1612 8.23406 14.9758 8.12915 14.7882 8.02868C14.5952 7.92532 14.3986 7.82596 14.1892 7.76251C13.7209 7.62058 13.2089 7.66715 12.7469 7.82763C12.2335 8.0059 11.7693 8.32364 11.4171 8.73762L11.4172 8.73807Z" fill="url(#paint9_linear_699_13609)"/>
<g filter="url(#filter11_f_699_13609)">
<path d="M14.7079 8.8412C14.6827 8.80942 14.6467 8.78697 14.6078 8.77563C14.5689 8.7643 14.5273 8.76452 14.4874 8.77007C14.4073 8.78374 14.3358 8.82564 14.2689 8.87288C14.0788 9.00357 13.911 9.16494 13.7646 9.34299C13.5707 9.5786 13.4107 9.8511 13.357 10.1515C13.3481 10.2021 13.342 10.2538 13.3483 10.3049C13.3546 10.356 13.3742 10.4066 13.4105 10.443C13.4423 10.475 13.4857 10.4946 13.5304 10.501C13.575 10.5075 13.621 10.5013 13.6637 10.4868C13.7493 10.4579 13.8204 10.3979 13.8875 10.3379C14.2583 10.0061 14.5936 9.60794 14.7277 9.12871C14.7411 9.08059 14.7526 9.03136 14.7522 8.98146C14.7517 8.93156 14.7387 8.88032 14.7079 8.8412Z" fill="#F6DA4A"/>
</g>
<g opacity="0.8" filter="url(#filter12_f_699_13609)">
<path d="M13.8175 8.15417C13.8431 8.23663 13.9763 8.22307 14.0532 8.26253C14.1206 8.2972 14.1747 8.37333 14.2506 8.37555C14.3229 8.37778 14.4356 8.35055 14.4451 8.27886C14.4576 8.18406 14.3191 8.12383 14.2301 8.08904C14.1156 8.04436 13.9686 8.02169 13.8611 8.08148C13.8364 8.09515 13.8095 8.12727 13.818 8.15428L13.8175 8.15417Z" fill="url(#paint10_radial_699_13609)"/>
</g>
<g opacity="0.8" filter="url(#filter13_f_699_13609)">
<path d="M12.5453 8.10647C12.4466 8.07424 12.2834 8.24839 12.3366 8.33763C12.3513 8.36208 12.396 8.3932 12.4262 8.37653C12.4717 8.35152 12.5088 8.26206 12.5581 8.22705C12.591 8.20371 12.5836 8.11902 12.5452 8.10658L12.5453 8.10647Z" fill="url(#paint11_radial_699_13609)"/>
</g>
<g filter="url(#filter14_f_699_13609)">
<path d="M16.9014 9.80034C17.0768 9.80034 17.2387 9.62448 17.263 9.40755C17.2873 9.19063 17.1648 9.01477 16.9894 9.01477C16.8141 9.01477 16.6522 9.19063 16.6278 9.40755C16.6035 9.62448 16.726 9.80034 16.9014 9.80034Z" fill="url(#paint12_linear_699_13609)"/>
</g>
<mask id="mask1_699_13609" style="mask-type:luminance" maskUnits="userSpaceOnUse" x="10" y="5" width="3" height="5">
<path d="M11.4807 5.42671C11.0592 5.95906 10.534 6.7259 10.5701 7.34382C10.6062 7.96175 10.9991 8.89252 11.5009 9.12202C12.0027 9.35152 12.1404 9.12346 12.4267 8.84418C12.713 8.56489 12.8557 8.02754 12.8719 7.48275C12.8881 6.93795 12.5346 6.15799 12.2673 5.7879C12 5.41782 11.902 4.89436 11.4804 5.42671H11.4807Z" fill="white"/>
</mask>
<g mask="url(#mask1_699_13609)">
<path d="M11.0542 6.22331C11.3526 6.04549 11.716 6.00437 12.0618 6.03704C12.4077 6.06972 12.7425 6.1713 13.0776 6.26265C13.3235 6.32956 13.5724 6.39157 13.8028 6.50026C14.0332 6.60895 14.2473 6.76877 14.3743 6.9896L14.4343 7.09651C14.4558 7.13119 14.4813 7.16431 14.5139 7.18876C14.5464 7.21321 14.5869 7.22921 14.6277 7.22699C14.6481 7.22588 14.6683 7.22032 14.6859 7.20987C14.7035 7.19943 14.7185 7.18431 14.7279 7.16631C14.7388 7.14552 14.7421 7.12141 14.7409 7.09785C14.7391 7.0744 14.7347 7.05123 14.7279 7.02872C14.644 6.72276 14.4462 6.46325 14.2956 6.18408L14.0402 5.67329C13.727 5.09982 13.2129 4.64905 12.6287 4.35665C12.0446 4.06425 11.3921 3.92366 10.7397 3.88543C9.98401 3.8412 9.22606 3.93099 8.48033 4.06214C8.15692 4.11904 7.82906 4.18605 7.54277 4.34687C7.39974 4.42722 7.2686 4.53102 7.16624 4.65917C7.06388 4.78731 6.99109 4.9409 6.96753 5.10338C6.94486 5.26008 6.96864 5.42123 7.0231 5.56971C7.07755 5.71819 7.16291 5.854 7.26282 5.9767C7.46253 6.22209 7.71848 6.41391 7.95431 6.62463C8.19015 6.83534 8.40998 7.06829 8.67259 7.24288C8.8044 7.33012 8.94744 7.40236 9.09969 7.44482C9.25195 7.48727 9.41421 7.49927 9.56914 7.46749C9.72973 7.43459 9.87843 7.3558 10.0086 7.25611C10.1387 7.15642 10.2515 7.03606 10.3584 6.9118C10.5724 6.6633 10.7722 6.39102 11.0538 6.2232L11.0542 6.22331Z" fill="url(#paint13_radial_699_13609)"/>
</g>
<path d="M21.5809 16.8842C22.257 17.4281 22.6864 18.2506 22.8195 19.1077C22.9233 19.7766 22.855 20.4634 22.7041 21.1217C22.5533 21.78 22.3208 22.4197 22.0893 23.0559C21.997 23.3096 21.9047 23.5661 21.8675 23.8331C21.8302 24.1002 21.8541 24.3832 21.9828 24.621C22.131 24.8925 22.4069 25.0797 22.7032 25.1684C22.9988 25.2527 23.3115 25.2566 23.6091 25.18C23.9055 25.1063 24.1823 24.9617 24.4236 24.7745C25.0358 24.298 25.4067 23.559 25.5504 22.7959C25.6941 22.0329 25.6276 21.2459 25.4945 20.4802C25.3126 19.4377 25.0065 18.4183 24.6188 17.4343C24.3331 16.7103 23.9977 15.9988 23.531 15.3759C23.0732 14.7673 22.4965 14.2544 22.0493 13.6387C21.7388 13.211 21.4886 12.7337 21.1151 12.3575C20.9312 12.1659 20.7094 12.0148 20.4638 11.9139C20.2168 11.8134 19.944 11.795 19.6857 11.8615C19.3503 11.9565 19.0753 12.2209 18.9298 12.5376C18.7843 12.8544 18.7585 13.2181 18.8144 13.5624C18.8881 14.006 19.0895 14.4186 19.3202 14.8063C19.5775 15.2437 19.8791 15.6652 20.2695 15.9908C20.6777 16.3306 21.1701 16.5542 21.5826 16.878L21.5809 16.8842Z" fill="#020204"/>
<mask id="mask2_699_13609" style="mask-type:luminance" maskUnits="userSpaceOnUse" x="18" y="11" width="8" height="15">
<path d="M21.5777 16.8844C22.2584 17.4315 22.6839 18.2533 22.8159 19.1075C23.0224 20.4445 22.5504 21.7831 22.0865 23.0565C21.9941 23.3105 21.901 23.5678 21.8642 23.8339C21.8274 24.1001 21.8506 24.3838 21.9807 24.6214C22.1282 24.891 22.403 25.0799 22.7011 25.1686C22.9942 25.2557 23.3114 25.253 23.608 25.1788C23.9046 25.1046 24.1805 24.9601 24.4212 24.7743C25.0412 24.2964 25.4121 23.5533 25.5526 22.7911C25.6932 22.029 25.6251 21.243 25.4904 20.4797C25.3068 19.4383 25.0027 18.4192 24.6147 17.4337C24.3298 16.7105 23.996 15.9989 23.5264 15.3754C23.0686 14.7675 22.4898 14.2529 22.0439 13.6378C21.7348 13.2106 21.4895 12.7342 21.117 12.3588C20.9307 12.171 20.7123 12.0104 20.4641 11.9143C20.216 11.8181 19.9364 11.7893 19.6797 11.8607C19.5094 11.908 19.3525 11.9982 19.2228 12.1163C19.0931 12.2344 18.9905 12.3804 18.9181 12.539C18.7733 12.856 18.751 13.2182 18.8089 13.5612C18.8836 14.0039 19.0854 14.4162 19.3142 14.8048C19.5715 15.2418 19.8707 15.6628 20.2628 15.9889C20.6702 16.3275 21.1637 16.5528 21.5765 16.8846" fill="white"/>
</mask>
<g mask="url(#mask2_699_13609)">
<g filter="url(#filter15_f_699_13609)">
<path d="M19.9883 15.8364L20.158 15.9892C20.5729 16.3288 20.7939 16.71 21.2146 17.0425C21.903 17.5865 22.6017 18.5255 22.7368 19.383C22.8423 20.0521 22.7029 20.4155 22.5326 21.2043C22.3623 21.9932 21.8797 23.1101 21.6191 23.8708C21.515 24.1742 21.8295 24.0489 21.7883 24.3686C21.7676 24.5257 21.7663 24.6846 21.7844 24.842L21.7923 24.7506C21.8424 24.3146 21.9759 23.8954 22.1215 23.4842C22.4015 22.6927 22.7228 21.9172 22.9443 21.105C23.1659 20.2928 23.1412 19.7087 23.0258 19.0107C22.8804 18.1332 22.3699 17.3229 21.6469 16.788C21.1355 16.4098 20.5327 16.1673 19.9886 15.8364H19.9883Z" fill="#838384"/>
</g>
</g>
<g opacity="0.25" filter="url(#filter16_f_699_13609)">
<path d="M9.4521 15.3445C9.56499 15.5138 9.38193 16.0978 12.0132 15.724C12.0132 15.724 11.5511 15.7748 11.0956 15.88C10.3874 16.1171 9.77038 16.382 9.29443 16.733C8.82285 17.08 8.47763 17.5329 8.04492 17.9219C8.04492 17.9219 8.74562 16.6416 8.92022 16.2562C9.09482 15.8709 8.89097 15.8895 9.02927 15.3211C9.16756 14.7528 9.50559 14.209 9.50559 14.209C9.50559 14.209 9.22952 15.0103 9.4521 15.3444V15.3445Z" fill="url(#paint14_radial_699_13609)"/>
</g>
<g opacity="0.42" filter="url(#filter17_f_699_13609)">
<path d="M17.9106 15.1916C17.3744 15.5651 17.0602 15.5209 16.4095 15.594C15.7588 15.667 13.998 15.6406 13.998 15.6406C13.998 15.6406 14.253 15.6359 14.818 15.7411C15.383 15.8463 16.5354 15.9469 17.1843 16.194C17.8333 16.441 18.0699 16.5115 18.4643 16.7608C19.0256 17.1158 19.4377 17.6718 19.9743 18.0608C19.9743 18.0608 20.0003 17.5446 19.7836 17.1592C19.5669 16.7738 18.9834 16.1662 18.8132 15.5988C18.6429 15.0315 18.5604 13.9171 18.5604 13.9171C18.5604 13.9171 18.4471 14.8179 17.9107 15.1914L17.9106 15.1916Z" fill="url(#paint15_radial_699_13609)"/>
</g>
<g opacity="0.2" filter="url(#filter18_f_699_13609)">
<path d="M12.8658 14.3941L12.7884 14.8768C12.7728 14.9557 12.7556 15.0347 12.7261 15.1094C12.6967 15.1842 12.6546 15.2553 12.595 15.309C12.5428 15.3562 12.479 15.3886 12.415 15.418C12.1651 15.5324 11.8977 15.6083 11.625 15.6425L11.9512 15.6722C12.0195 15.6797 12.0881 15.688 12.1548 15.7051C12.2215 15.7223 12.2865 15.7496 12.3419 15.789C12.4028 15.8335 12.4506 15.8944 12.4864 15.9609C12.5576 16.0933 12.5813 16.2457 12.5946 16.3943C12.6112 16.5858 12.6126 16.7788 12.5982 16.9704C12.6111 16.8422 12.638 16.7153 12.6782 16.5928C12.7508 16.3721 12.8676 16.1651 13.025 15.9942C13.0875 15.9264 13.1561 15.8642 13.2317 15.8111C13.4659 15.6477 13.7528 15.5779 14.0359 15.6153C13.7488 15.627 13.4664 15.5394 13.2364 15.3672C13.1206 15.2799 13.0197 15.1712 12.9496 15.0443C12.8409 14.8454 12.8111 14.6128 12.8662 14.3929L12.8658 14.3941Z" fill="url(#paint16_radial_699_13609)"/>
</g>
<g opacity="0.1" filter="url(#filter19_f_699_13609)">
<path d="M12.1781 18.177C12.0414 18.6974 11.9475 19.228 11.8973 19.7637C11.8265 20.5208 11.8435 21.2832 11.8029 22.0426C11.7695 22.6869 11.6928 23.338 11.8046 23.9735C11.858 24.2765 11.9539 24.5719 12.0886 24.8487C12.11 24.7431 12.1256 24.6364 12.1355 24.529C12.183 24.0138 12.0962 23.4969 12.0668 22.9803C12.0155 22.0749 12.1408 21.1688 12.1919 20.2644C12.231 19.569 12.2264 18.8719 12.178 18.1771L12.1781 18.177Z" fill="black"/>
</g>
<g filter="url(#filter20_f_699_13609)">
<path d="M18.4211 10.3733C18.1808 10.5922 18.5338 10.921 18.7012 11.3073C18.8052 11.5474 19.0931 11.8858 19.3715 11.8316C19.581 11.7909 19.711 11.4893 19.6912 11.2771C19.6529 10.867 19.307 10.7711 19.0558 10.6303C18.8569 10.5187 18.5898 10.2197 18.4212 10.3735L18.4211 10.3733Z" fill="#838384"/>
</g>
<mask id="mask3_699_13609" style="mask-type:luminance" maskUnits="userSpaceOnUse" x="18" y="23" width="11" height="11">
<path d="M28.3581 28.7129C28.4592 28.8903 28.1836 29.0894 28.0451 29.2394C27.7404 29.5698 27.3283 29.7842 26.9453 30.0196C26.2881 30.4236 25.5428 30.6756 24.8982 31.0995C24.4666 31.3833 24.0838 31.7354 23.6912 32.0711C23.3554 32.3583 23.082 32.7241 22.7097 32.9622C22.3374 33.2002 21.9268 33.4238 21.4883 33.479C20.9567 33.5457 20.3911 33.4505 19.899 33.2385C19.555 33.0902 19.2144 32.8628 19.014 32.5461C18.8125 32.2277 18.7851 31.8195 18.7659 31.4432C18.7317 30.7697 18.9173 30.1028 19.0079 29.4346C19.0835 28.8787 19.2138 28.3295 19.2591 27.7703C19.3413 26.7543 19.1724 25.7245 19.2946 24.7126C19.3341 24.3862 19.2746 23.9724 19.5183 23.7519C19.7447 23.5469 20.1217 23.6274 20.4274 23.6338C20.7991 23.6416 21.1644 23.7394 21.5265 23.8246C21.755 23.8783 21.9708 23.9813 22.2013 24.0258C22.5836 24.0994 22.9755 24.1442 23.3646 24.1316C23.7853 24.1178 24.1911 23.932 24.612 23.9354C24.7845 23.9368 24.9592 23.9667 25.1217 24.0243C25.2865 24.0827 25.4538 24.1583 25.5799 24.2794C25.676 24.3716 25.7388 24.4969 25.7888 24.6206C25.8635 24.8053 25.8882 25.0071 25.9185 25.204C25.9454 25.379 25.9015 25.5675 25.9645 25.733C26.1679 26.2665 26.5844 26.7029 26.9898 27.1048C27.1835 27.3199 27.4377 27.4976 27.6752 27.6414C27.9274 27.7941 28.1606 27.9137 28.2823 28.1766C28.3557 28.3417 28.2218 28.5945 28.3582 28.713L28.3581 28.7129Z" fill="white"/>
</mask>
<g mask="url(#mask3_699_13609)">
<path d="M28.354 28.7126C28.2795 28.9038 28.1731 29.0824 28.041 29.2392C27.7494 29.5854 27.3444 29.8138 26.9412 30.0194C26.2533 30.3699 25.5406 30.6775 24.894 31.0993C24.4608 31.3818 24.061 31.7135 23.6871 32.0708C23.3674 32.3765 23.0641 32.7029 22.7055 32.9619C22.3437 33.2231 21.9254 33.4125 21.4841 33.4787C20.9473 33.5593 20.3928 33.4551 19.8949 33.2382C19.5461 33.0863 19.2107 32.8689 19.0099 32.5459C18.8083 32.2216 18.7623 31.8248 18.7617 31.4429C18.7608 30.7675 18.886 30.0982 19.0038 29.4343C19.1016 28.8818 19.1949 28.328 19.2549 27.7701C19.3642 26.7554 19.3634 25.7304 19.2905 24.7123C19.2794 24.5419 19.2641 24.3697 19.2896 24.2007C19.3152 24.0316 19.3846 23.8632 19.5141 23.7517C19.6338 23.6487 19.7942 23.6032 19.952 23.5945C20.1098 23.5859 20.267 23.6109 20.4232 23.6337C20.7914 23.6874 21.1625 23.7298 21.5224 23.8245C21.7494 23.8842 21.9706 23.9645 22.1972 24.0256C22.5754 24.1279 22.9714 24.1768 23.3605 24.1314C23.7795 24.0825 24.1862 23.9251 24.6079 23.9353C24.7809 23.9395 24.9524 23.9722 25.1175 24.0242C25.2859 24.0773 25.4521 24.1533 25.5758 24.2792C25.6698 24.3748 25.7354 24.4954 25.7847 24.6204C25.8581 24.8065 25.8975 25.0046 25.9144 25.2039C25.9294 25.3804 25.927 25.5589 25.9604 25.7329C26.0154 26.0191 26.1657 26.2801 26.3525 26.5037C26.5393 26.7273 26.7637 26.9171 26.9855 27.1047C27.2078 27.2914 27.4312 27.4776 27.6709 27.6413C27.7834 27.7182 27.8994 27.7902 28.0062 27.8746C28.113 27.9591 28.2113 28.0577 28.278 28.1764C28.3685 28.3375 28.3962 28.5329 28.3539 28.7127L28.354 28.7126Z" fill="url(#paint17_linear_699_13609)"/>
</g>
<mask id="mask4_699_13609" style="mask-type:luminance" maskUnits="userSpaceOnUse" x="18" y="23" width="11" height="11">
<path d="M28.3581 28.7129C28.4592 28.8903 28.1836 29.0894 28.0451 29.2394C27.7404 29.5698 27.3283 29.7842 26.9453 30.0196C26.2881 30.4236 25.5428 30.6756 24.8982 31.0995C24.4666 31.3833 24.0838 31.7354 23.6912 32.0711C23.3554 32.3583 23.082 32.7241 22.7097 32.9622C22.3374 33.2002 21.9268 33.4238 21.4883 33.479C20.9567 33.5457 20.3911 33.4505 19.899 33.2385C19.555 33.0902 19.2144 32.8628 19.014 32.5461C18.8125 32.2277 18.7851 31.8195 18.7659 31.4432C18.7317 30.7697 18.9173 30.1028 19.0079 29.4346C19.0835 28.8787 19.2138 28.3295 19.2591 27.7703C19.3413 26.7543 19.1724 25.7245 19.2946 24.7126C19.3341 24.3862 19.2746 23.9724 19.5183 23.7519C19.7447 23.5469 20.1217 23.6274 20.4274 23.6338C20.7991 23.6416 21.1644 23.7394 21.5265 23.8246C21.755 23.8783 21.9708 23.9813 22.2013 24.0258C22.5836 24.0994 22.9755 24.1442 23.3646 24.1316C23.7853 24.1178 24.1911 23.932 24.612 23.9354C24.7845 23.9368 24.9592 23.9667 25.1217 24.0243C25.2865 24.0827 25.4538 24.1583 25.5799 24.2794C25.676 24.3716 25.7388 24.4969 25.7888 24.6206C25.8635 24.8053 25.8882 25.0071 25.9185 25.204C25.9454 25.379 25.9015 25.5675 25.9645 25.733C26.1679 26.2665 26.5844 26.7029 26.9898 27.1048C27.1835 27.3199 27.4377 27.4976 27.6752 27.6414C27.9274 27.7941 28.1606 27.9137 28.2823 28.1766C28.3557 28.3417 28.2218 28.5945 28.3582 28.713L28.3581 28.7129Z" fill="white"/>
</mask>
<g mask="url(#mask4_699_13609)">
<g filter="url(#filter21_f_699_13609)">
<path d="M28.0138 28.3624C27.945 28.5347 27.8484 28.6946 27.728 28.8358C27.4611 29.1485 27.0912 29.353 26.7236 29.5371C26.0953 29.8516 25.4451 30.1281 24.8542 30.5079C24.4592 30.7617 24.0941 31.0598 23.752 31.3814C23.4597 31.6562 23.1824 31.95 22.8555 32.1825C22.5244 32.4181 22.1423 32.5878 21.7401 32.647C21.2499 32.7193 20.7443 32.6256 20.2888 32.4308C19.9713 32.2949 19.6646 32.1007 19.4806 31.8084C19.2977 31.5175 19.255 31.1605 19.2539 30.8168C19.2525 30.2095 19.3671 29.6088 19.4751 29.0111C19.5648 28.5143 19.6501 28.0166 19.7045 27.5148C19.8034 26.6026 19.7987 25.6813 19.7369 24.7658C19.7266 24.6125 19.7147 24.4576 19.7383 24.3057C19.7618 24.1539 19.8247 24.0027 19.9412 23.9023C20.0504 23.8082 20.1971 23.7669 20.3413 23.7594C20.4854 23.7518 20.6288 23.7752 20.7714 23.7961C21.1074 23.8455 21.4462 23.8827 21.775 23.9675C21.9822 24.0211 22.1844 24.0934 22.3912 24.1485C22.7368 24.2407 23.0983 24.2846 23.4537 24.2436C23.836 24.1995 24.208 24.058 24.5928 24.0672C24.7507 24.0711 24.9074 24.1006 25.0585 24.1473C25.2121 24.1946 25.3641 24.2622 25.4769 24.3765C25.5621 24.4627 25.6209 24.5715 25.6676 24.6833C25.7372 24.8496 25.7824 25.0275 25.7861 25.2078C25.79 25.3961 25.7488 25.5851 25.7743 25.7716C25.795 25.9231 25.8591 26.0659 25.941 26.1951C26.0229 26.3242 26.1226 26.4407 26.2214 26.5574C26.4123 26.783 26.6037 27.0127 26.843 27.1859C27.1155 27.383 27.4389 27.4982 27.7205 27.6823C27.8044 27.7372 27.8856 27.7992 27.9447 27.8801C27.9941 27.9491 28.0262 28.0289 28.0382 28.1128C28.0503 28.1967 28.042 28.2823 28.0141 28.3624H28.0138Z" fill="#CD8907"/>
</g>
</g>
<mask id="mask5_699_13609" style="mask-type:luminance" maskUnits="userSpaceOnUse" x="18" y="23" width="11" height="11">
<path d="M28.3533 28.7122C28.4542 28.8897 28.1787 29.0888 28.0403 29.2388C27.7354 29.5692 27.3233 29.7836 26.9402 30.019C26.283 30.423 25.5378 30.6764 24.8931 31.0989C24.4615 31.3827 24.0788 31.7349 23.686 32.0704C23.3502 32.3576 23.0768 32.7237 22.7044 32.9615C22.3319 33.1992 21.9215 33.423 21.4829 33.4783C20.9513 33.5452 20.3858 33.4499 19.8951 33.2378C19.5511 33.0895 19.2091 32.862 19.0101 32.5455C18.8086 32.2271 18.781 31.819 18.762 31.4426C18.7277 30.7691 18.9134 30.1023 19.0041 29.4341C19.0795 28.878 19.2099 28.3288 19.2552 27.7698C19.3374 26.7539 19.1686 25.724 19.2908 24.712C19.3289 24.3856 19.2707 23.9719 19.5144 23.7514C19.7408 23.5464 20.1177 23.6281 20.4234 23.6333C20.7952 23.6413 21.1605 23.7391 21.5224 23.8241C21.751 23.8778 21.9667 23.9809 22.1973 24.0254C22.5784 24.0991 22.9714 24.1439 23.3606 24.1312C23.7813 24.1175 24.187 23.9315 24.608 23.9351C24.7805 23.9364 24.9552 23.9666 25.1178 24.0241C25.2825 24.0824 25.4498 24.1583 25.5759 24.2791C25.6721 24.3714 25.7347 24.4966 25.7848 24.6215C25.8595 24.8064 25.8841 25.008 25.9143 25.2049C25.9413 25.3798 25.8973 25.5685 25.9605 25.7338C26.1637 26.2673 26.5803 26.7037 26.9856 27.1056C27.1793 27.3206 27.4335 27.4983 27.671 27.6421C27.9231 27.7949 28.1562 27.9144 28.2782 28.1774C28.3515 28.3424 28.2177 28.5954 28.3541 28.7138L28.3533 28.7122Z" fill="white"/>
</mask>
<g mask="url(#mask5_699_13609)">
<g filter="url(#filter22_f_699_13609)">
<path d="M27.9683 28.168C27.8918 28.3413 27.7927 28.5028 27.6748 28.646C27.4013 28.9785 27.0321 29.2075 26.643 29.3544C26.0025 29.5964 25.3034 29.6288 24.6747 29.9044C24.2916 30.0723 23.9468 30.3252 23.5975 30.5645C23.3153 30.7576 23.0269 30.9438 22.717 31.0789C22.367 31.2316 21.9947 31.3172 21.6212 31.3774C21.3837 31.4158 21.1432 31.4437 20.9033 31.4305C20.6633 31.4172 20.4226 31.361 20.211 31.2387C20.0504 31.1459 19.9061 31.0123 19.8203 30.8391C19.725 30.6465 19.7085 30.4205 19.7108 30.2022C19.7166 29.6207 19.8411 29.0455 19.8373 28.464C19.834 27.9578 19.7338 27.4581 19.7049 26.9528C19.6494 25.9812 19.858 24.9926 19.6744 24.0394C19.6452 23.8868 19.6056 23.7344 19.6075 23.5786C19.6085 23.5005 19.6202 23.4224 19.6475 23.3503C19.6748 23.2781 19.719 23.2126 19.7777 23.167C19.8272 23.1287 19.8857 23.1054 19.9458 23.0948C20.0058 23.0843 20.0673 23.0863 20.1277 23.0958C20.2481 23.1146 20.3629 23.1618 20.4802 23.1967C20.8158 23.2967 21.1703 23.2945 21.5112 23.37C21.7253 23.4174 21.9326 23.4946 22.1443 23.5527C22.5 23.6485 22.8709 23.6914 23.2357 23.6485C23.6283 23.6027 24.0115 23.4602 24.406 23.4705C24.5678 23.4746 24.7283 23.5047 24.8843 23.5513C25.0403 23.5979 25.1962 23.6636 25.3142 23.7828C25.3993 23.8688 25.4602 23.9786 25.51 24.0923C25.5824 24.2583 25.6329 24.4388 25.6317 24.622C25.6311 24.7175 25.6165 24.8121 25.608 24.9069C25.5995 25.0017 25.5968 25.0992 25.6194 25.1913C25.642 25.2835 25.6898 25.3676 25.7443 25.4433C25.7988 25.5191 25.8605 25.5885 25.9168 25.6627C26.0745 25.8705 26.1873 26.1126 26.3102 26.3461C26.433 26.5796 26.5708 26.8108 26.7649 26.9789C27.0291 27.2079 27.3719 27.2993 27.6663 27.4801C27.7527 27.5331 27.8361 27.5952 27.8967 27.6801C27.9453 27.7484 27.9773 27.8288 27.9898 27.9138C28.0022 27.9989 27.9947 28.0859 27.968 28.1671L27.9683 28.168Z" fill="#F5C021"/>
</g>
</g>
<g filter="url(#filter23_f_699_13609)">
<path d="M19.6103 24.131C19.9744 24.0325 20.2845 24.3085 20.5485 24.5169C20.7191 24.6625 20.9656 24.6258 21.175 24.6327C21.5217 24.6202 21.8668 24.6908 22.2138 24.6478C22.8967 24.59 23.5661 24.4222 24.2523 24.3922C24.5801 24.3715 24.948 24.3525 25.2312 24.5439C25.346 24.6235 25.5142 24.9596 25.6275 24.8334C25.5808 24.4802 25.3189 24.1382 24.9673 24.0441C24.6923 24.0008 24.4116 24.0764 24.1349 24.0519C23.3099 24.0322 22.4909 23.8791 21.6639 23.923C21.0886 23.928 20.514 23.9013 19.9396 23.8789C19.714 23.8328 19.6343 24.0334 19.5117 24.11" fill="url(#paint18_linear_699_13609)"/>
</g>
<g opacity="0.75" filter="url(#filter24_f_699_13609)">
<path d="M21.2397 17.4148C21.3717 17.3944 22.1863 18.0869 22.0749 18.3453C21.9636 18.6037 21.7544 18.4475 21.6047 18.4493C21.455 18.451 21.0456 18.6368 20.977 18.5196C20.9084 18.4023 21.1581 18.1284 21.2888 17.8995C21.394 17.7152 21.1077 17.4365 21.2398 17.4161L21.2397 17.4148Z" fill="#7C7C7C"/>
</g>
<g opacity="0.25" filter="url(#filter25_f_699_13609)">
<path d="M9.74136 13.0561C9.72818 12.8965 9.50034 12.8726 9.39873 12.9522C9.31291 13.0195 9.23244 13.249 9.30646 13.3388C9.42679 13.4844 9.75932 13.275 9.74135 13.0563L9.74136 13.0561Z" fill="#7C7C7C"/>
</g>
<g opacity="0.35" filter="url(#filter26_f_699_13609)">
<path d="M24.5193 24.6853C24.4567 24.5629 24.3429 24.4713 24.2159 24.4183C24.0889 24.3653 23.9495 24.3483 23.812 24.3494C23.537 24.3516 23.2636 24.4232 22.9896 24.3994C22.7581 24.3794 22.5384 24.2924 22.3117 24.2375C22.0786 24.1819 21.8314 24.1597 21.5999 24.2216C21.3525 24.2889 21.1342 24.4543 20.9975 24.6711C20.877 24.8623 20.8197 25.0882 20.8019 25.3135C20.7841 25.5388 20.8033 25.7654 20.8261 25.9903C20.8426 26.153 20.861 26.3159 20.9004 26.4749C20.9397 26.6338 21.0008 26.7886 21.0966 26.9211C21.2344 27.1118 21.4393 27.2478 21.6601 27.3295C22.0249 27.4628 22.4262 27.4558 22.7861 27.3098C23.4152 27.0368 23.9475 26.547 24.272 25.9429C24.3882 25.7266 24.4784 25.4961 24.5368 25.2577C24.5599 25.1629 24.5781 25.0663 24.579 24.9687C24.5799 24.8712 24.5627 24.772 24.5183 24.6853H24.5193Z" fill="url(#paint19_radial_699_13609)"/>
</g>
<g opacity="0.35" filter="url(#filter27_f_699_13609)">
<path d="M24.5193 24.5565C24.4567 24.468 24.3429 24.4018 24.2159 24.3635C24.0889 24.3251 23.9495 24.3128 23.812 24.3137C23.537 24.3153 23.2636 24.367 22.9896 24.3498C22.7581 24.3353 22.5384 24.2724 22.3117 24.2327C22.0786 24.1926 21.8314 24.1765 21.5999 24.2213C21.3525 24.2699 21.1342 24.3895 20.9975 24.5462C20.877 24.6844 20.8197 24.8478 20.8019 25.0106C20.7841 25.1735 20.8033 25.3373 20.8261 25.4999C20.8426 25.6176 20.861 25.7353 20.9004 25.8502C20.9397 25.9651 21.0008 26.077 21.0966 26.1728C21.2344 26.3107 21.4393 26.409 21.6601 26.4681C22.0249 26.5645 22.4262 26.5594 22.7861 26.4539C23.4152 26.2564 23.9475 25.9024 24.272 25.4656C24.3882 25.3093 24.4784 25.1426 24.5368 24.9703C24.5599 24.9018 24.5781 24.832 24.579 24.7614C24.5799 24.6909 24.5627 24.6192 24.5183 24.5565H24.5193Z" fill="url(#paint20_radial_699_13609)"/>
</g>
<path d="M25.0423 23.5391C24.9973 23.4164 24.9181 23.3077 24.8211 23.2201C24.7242 23.1325 24.61 23.0654 24.4896 23.0143C24.249 22.912 23.9873 22.8743 23.7303 22.8258L23.0048 22.6839C22.7526 22.641 22.4916 22.6136 22.2419 22.67C22.0234 22.7192 21.8213 22.8323 21.656 22.9834C21.4906 23.1345 21.3614 23.323 21.2687 23.528C21.1051 23.8869 21.0536 24.2909 21.0848 24.6841C21.1082 24.9768 21.1821 25.2783 21.3749 25.4999C21.5305 25.6788 21.7513 25.7905 21.9788 25.8577C22.3706 25.9737 22.7976 25.9675 23.1858 25.8405C23.8314 25.6223 24.3897 25.2023 24.7784 24.6426C24.9051 24.4592 25.0131 24.2594 25.0621 24.0421C25.0994 23.8754 25.1008 23.6998 25.0423 23.5403V23.5391Z" fill="#020204"/>
<mask id="mask6_699_13609" style="mask-type:luminance" maskUnits="userSpaceOnUse" x="21" y="22" width="5" height="4">
<path d="M25.0325 23.539C24.9875 23.4163 24.9083 23.3076 24.8114 23.22C24.7145 23.1324 24.6002 23.0653 24.4799 23.0142C24.2392 22.9119 23.9775 22.8741 23.7206 22.8257L22.9951 22.6838C22.7428 22.6409 22.4818 22.6135 22.2321 22.6699C22.0136 22.7191 21.8116 22.8321 21.6462 22.9833C21.4808 23.1344 21.3517 23.3229 21.2589 23.5278C21.0953 23.8868 21.0438 24.2908 21.0751 24.684C21.0984 24.9766 21.1723 25.2781 21.3651 25.4998C21.5207 25.6787 21.7416 25.7904 21.969 25.8576C22.3608 25.9735 22.7878 25.9674 23.176 25.8404C23.8216 25.6222 24.3799 25.2022 24.7686 24.6424C24.8953 24.4591 25.0033 24.2592 25.0523 24.042C25.0897 23.8753 25.091 23.6997 25.0325 23.5402" fill="white"/>
</mask>
<g mask="url(#mask6_699_13609)">
<g filter="url(#filter28_f_699_13609)">
<path d="M22.3725 22.553C22.3119 22.5563 22.2516 22.5633 22.1919 22.5739C21.8062 22.6424 21.4531 22.8862 21.2542 23.2234C21.1138 23.4637 21.0496 23.741 21.0701 24.0186C21.0783 23.825 21.1291 23.6356 21.223 23.4663C21.3823 23.1793 21.6711 22.9628 21.994 22.9037C22.1941 22.8673 22.3977 22.8893 22.5984 22.9142C22.791 22.9382 22.9852 22.9634 23.175 23.0045C23.4684 23.0681 23.7589 23.1657 24.0052 23.3379C24.0625 23.3779 24.1163 23.4235 24.1614 23.4769C24.2065 23.5302 24.2417 23.5922 24.2552 23.6609C24.275 23.7614 24.2463 23.8668 24.1963 23.9561C24.1463 24.0453 24.078 24.1236 24.0052 24.1957C23.9463 24.2541 23.8835 24.3106 23.8211 24.3657C24.1056 24.3106 24.3937 24.2326 24.6302 24.0671C24.7302 23.9971 24.8208 23.9132 24.8803 23.8066C24.9397 23.7 24.9649 23.571 24.9358 23.4524C24.9162 23.3724 24.8725 23.2988 24.8178 23.2371C24.7631 23.1755 24.6978 23.1247 24.6303 23.0774C24.3325 22.8688 23.9841 22.7351 23.6232 22.6918C23.392 22.6492 23.1586 22.6133 22.9252 22.584C22.7427 22.5611 22.5563 22.5425 22.3729 22.5529L22.3725 22.553Z" fill="url(#paint21_radial_699_13609)"/>
</g>
</g>
<mask id="mask7_699_13609" style="mask-type:luminance" maskUnits="userSpaceOnUse" x="21" y="22" width="5" height="4">
<path d="M25.0325 23.539C24.9875 23.4163 24.9083 23.3076 24.8114 23.22C24.7145 23.1324 24.6002 23.0653 24.4799 23.0142C24.2392 22.9119 23.9775 22.8741 23.7206 22.8257L22.9951 22.6838C22.7428 22.6409 22.4818 22.6135 22.2321 22.6699C22.0136 22.7191 21.8116 22.8321 21.6462 22.9833C21.4808 23.1344 21.3517 23.3229 21.2589 23.5278C21.0953 23.8868 21.0438 24.2908 21.0751 24.684C21.0984 24.9766 21.1723 25.2781 21.3651 25.4998C21.5207 25.6787 21.7416 25.7904 21.969 25.8576C22.3608 25.9735 22.7878 25.9674 23.176 25.8404C23.8216 25.6222 24.3799 25.2022 24.7686 24.6424C24.8953 24.4591 25.0033 24.2592 25.0523 24.042C25.0897 23.8753 25.091 23.6997 25.0325 23.5402" fill="white"/>
</mask>
<g mask="url(#mask7_699_13609)">
<g filter="url(#filter29_f_699_13609)">
<path d="M22.3725 22.553C22.3119 22.5563 22.2516 22.5633 22.1919 22.5739C21.8062 22.6424 21.4531 22.8862 21.2542 23.2234C21.1138 23.4637 21.0496 23.741 21.0701 24.0186C21.0783 23.825 21.1291 23.6356 21.223 23.4663C21.3823 23.1793 21.6711 22.9628 21.994 22.9037C22.1941 22.8673 22.3977 22.8893 22.5984 22.9142C22.791 22.9382 22.9852 22.9634 23.175 23.0045C23.4684 23.0681 23.7589 23.1657 24.0052 23.3379C24.0625 23.3779 24.1163 23.4235 24.1614 23.4769C24.2065 23.5302 24.2417 23.5922 24.2552 23.6609C24.275 23.7614 24.2463 23.8668 24.1963 23.9561C24.1463 24.0453 24.078 24.1236 24.0052 24.1957C23.9463 24.2541 23.8835 24.3106 23.8211 24.3657C24.1056 24.3106 24.3937 24.2326 24.6302 24.0671C24.7302 23.9971 24.8208 23.9132 24.8803 23.8066C24.9397 23.7 24.9649 23.571 24.9358 23.4524C24.9162 23.3724 24.8725 23.2988 24.8178 23.2371C24.7631 23.1755 24.6978 23.1247 24.6303 23.0774C24.3325 22.8688 23.9841 22.7351 23.6232 22.6918C23.392 22.6492 23.1586 22.6133 22.9252 22.584C22.7427 22.5611 22.5563 22.5425 22.3729 22.5529L22.3725 22.553Z" fill="url(#paint22_linear_699_13609)"/>
</g>
</g>
<path d="M9.73819 12.3254L7.85723 14.6802C7.46418 15.1682 7.06226 15.6579 6.80673 16.2284C6.58669 16.7191 6.48289 17.2514 6.33294 17.7678C6.16171 18.3534 5.93013 18.9212 5.66928 19.4713L4.89739 20.9752C4.70397 21.3372 4.507 21.7063 4.44046 22.1109C4.38722 22.4303 4.41828 22.7603 4.4999 23.0744C4.58153 23.3885 4.71283 23.6955 4.86012 23.975C5.48119 25.2056 6.43498 26.2667 7.55468 27.0786C8.06307 27.4468 8.60695 27.7653 9.17834 28.0261C9.48887 28.1681 9.81361 28.2923 10.1543 28.2994C10.3247 28.302 10.4959 28.2746 10.6512 28.2062C10.8064 28.1379 10.9457 28.0288 11.038 27.8851C11.1516 27.7094 11.1906 27.492 11.1675 27.2844C11.1401 27.0763 11.0674 26.8767 10.9546 26.6997C10.6884 26.265 10.2697 25.9482 9.86596 25.635L7.34618 23.5056C7.11815 23.2927 6.89103 23.0744 6.73132 22.8073C6.57605 22.5465 6.49176 22.2502 6.43586 21.952C6.28059 21.1358 6.32052 20.2752 6.59823 19.4926C6.70736 19.1856 6.85021 18.8937 6.98862 18.5992C7.22817 18.089 7.4562 17.5699 7.77206 17.1024C8.16511 16.5212 8.69124 16.0377 9.01153 15.4042C9.28214 14.8772 9.39128 14.2845 9.49597 13.7007L9.73908 12.3317L9.73819 12.3254Z" fill="#020204"/>
<mask id="mask8_699_13609" style="mask-type:luminance" maskUnits="userSpaceOnUse" x="4" y="12" width="8" height="17">
<path d="M9.68783 12.3459C9.68783 12.3459 9.12036 13.0511 8.81018 13.4848C8.5 13.9184 8.17259 14.2238 7.85585 14.6795C7.5391 15.1352 7.03732 15.7277 6.8056 16.2276C6.57388 16.7275 6.54776 17.2319 6.3316 17.7669C6.11544 18.3019 5.92039 18.9496 5.66811 19.4713C5.41583 19.993 5.0713 20.5476 4.89682 20.9756C4.72233 21.4036 4.47339 21.6118 4.44027 22.1115C4.40715 22.6111 4.37614 23.0358 4.85948 23.9754C5.34281 24.9151 6.77504 26.4212 7.55366 27.079C8.33229 27.7367 8.59724 27.8819 9.17649 28.0265C9.75573 28.1711 10.7164 28.3597 11.0358 27.8854C11.3552 27.411 11.2883 27.2224 10.9525 26.7C10.6166 26.1775 10.4162 26.1107 9.86376 25.6361C9.3113 25.1614 7.7925 23.9831 7.34295 23.4978C6.8934 23.0124 6.5531 23.1186 6.72836 22.7994C6.90362 22.4802 6.48308 22.3537 6.43296 21.9444C6.34805 21.2504 6.53787 19.8662 6.59522 19.4846C6.65256 19.1031 6.73125 19.1597 6.9862 18.5911C7.24115 18.0225 7.44453 17.6326 7.76971 17.0944C8.0949 16.5562 8.72827 15.9688 9.00889 15.3964C9.28951 14.8241 9.39832 14.205 9.49367 13.694C9.58903 13.183 9.68783 12.3459 9.68783 12.3459Z" fill="white"/>
</mask>
<g mask="url(#mask8_699_13609)">
<g opacity="0.95" filter="url(#filter30_f_699_13609)">
<path d="M7.93941 16.7535C7.68107 16.9915 7.45826 17.2654 7.27781 17.5668C6.9813 18.0624 6.80659 18.619 6.59121 19.1549C6.43073 19.5539 6.2439 19.9543 6.22145 20.3836C6.21001 20.6041 6.24257 20.8244 6.25002 21.0451C6.25746 21.2658 6.2369 21.4952 6.12777 21.6879C6.03741 21.8491 5.88704 21.9758 5.71289 22.0374C5.94954 22.117 6.15634 22.2669 6.30581 22.4669C6.42972 22.6336 6.50897 22.8285 6.61655 23.0059C6.70401 23.1502 6.81137 23.2838 6.94362 23.3888C7.07588 23.4938 7.23369 23.5688 7.40117 23.5903C7.51641 23.6042 7.6333 23.5932 7.74388 23.5579C7.85445 23.5225 7.9561 23.4638 8.04188 23.3856C7.82794 21.3811 8.02387 19.3338 8.61424 17.4064C8.65147 17.2847 8.69059 17.1621 8.69981 17.0352C8.70904 16.9083 8.68536 16.7742 8.60824 16.6731C8.56711 16.6192 8.51177 16.5764 8.44931 16.55C8.38685 16.5235 8.3175 16.5138 8.25037 16.522C8.18325 16.5301 8.11812 16.556 8.06366 16.5964C8.00921 16.6369 7.96564 16.6917 7.93841 16.7537L7.93941 16.7535Z" fill="#7C7C7C"/>
</g>
</g>
<mask id="mask9_699_13609" style="mask-type:luminance" maskUnits="userSpaceOnUse" x="0" y="23" width="12" height="11">
<path d="M5.19918 23.0602C5.90212 22.9092 6.5326 23.6017 7.07373 24.0751C7.7879 24.6996 6.12373 26.9664 8.54574 26.2789C9.197 26.094 9.31203 27.5361 9.67534 28.1074C10.131 28.8241 10.963 29.6281 11.1926 30.4458C11.3686 31.0724 11.3418 31.6578 11.0118 32.2187C10.615 32.8933 9.70146 33.3779 8.9235 33.4646C8.28668 33.5357 7.60341 33.0384 6.99149 32.8478C5.62272 32.4217 4.34865 32.201 2.97977 31.7751L1.7606 31.3943C1.26048 31.2472 1.04198 31.284 0.791481 30.8644C0.4933 30.3654 0.867055 29.7834 1.14312 29.2203C1.59545 28.2973 1.35561 27.2391 1.19446 26.3852C1.092 25.8419 1.12111 25.5042 1.49931 25.186C2.05444 24.7188 3.11414 25.0157 3.76129 24.7322C4.40844 24.4487 4.50191 23.2103 5.19907 23.0607L5.19918 23.0602Z" fill="white"/>
</mask>
<g mask="url(#mask9_699_13609)">
<path d="M5.19669 23.0599C5.37451 22.9862 5.57434 22.9727 5.76349 23.0076C5.95265 23.0425 6.13136 23.1243 6.29062 23.2323C6.60891 23.4486 6.84497 23.7634 7.07113 24.0748C7.59036 24.7898 8.09026 25.5198 8.54314 26.2786C8.91056 26.8941 9.2482 27.5297 9.67274 28.1072C9.94992 28.4841 10.2625 28.834 10.5411 29.2099C10.8196 29.5857 11.0665 29.994 11.1901 30.4454C11.3506 31.0318 11.2885 31.6782 11.0093 32.2183C10.8129 32.5984 10.5118 32.9243 10.1455 33.1452C9.77921 33.3662 9.34867 33.4802 8.92123 33.4642C8.24174 33.4386 7.62093 33.0991 6.98922 32.8474C5.70226 32.3348 4.30415 32.1739 2.97751 31.7747C2.56963 31.652 2.16887 31.5068 1.75833 31.3939C1.57607 31.3439 1.39047 31.2997 1.21821 31.2217C1.04594 31.1436 0.884794 31.0272 0.788994 30.8641C0.714977 30.7381 0.683636 30.5896 0.685637 30.4434C0.687637 30.2971 0.721868 30.1527 0.771657 30.0153C0.871236 29.7403 1.03205 29.4914 1.14063 29.2199C1.3179 28.7764 1.34979 28.2876 1.3259 27.8106C1.302 27.3336 1.22476 26.861 1.19198 26.3848C1.17753 26.172 1.17197 25.9565 1.21254 25.7473C1.2531 25.538 1.34324 25.3333 1.49683 25.1855C1.63842 25.0491 1.82635 24.9682 2.01873 24.928C2.21111 24.8877 2.40937 24.8861 2.60598 24.8904C2.80258 24.8947 2.9994 24.9053 3.19545 24.8893C3.39149 24.8733 3.58809 24.8293 3.75891 24.7317C3.92117 24.639 4.05387 24.5011 4.1639 24.3501C4.27392 24.199 4.36283 24.0338 4.45396 23.8706C4.5451 23.7075 4.63934 23.5448 4.7587 23.4009C4.87806 23.2571 5.02432 23.1317 5.19692 23.0601L5.19669 23.0599Z" fill="url(#paint23_linear_699_13609)"/>
<g filter="url(#filter31_f_699_13609)">
<path d="M5.48274 23.3667C5.64444 23.3016 5.82659 23.2945 5.99652 23.3329C6.16645 23.3714 6.32438 23.4552 6.46196 23.5604C6.73736 23.7731 6.92874 24.0732 7.11256 24.3684C7.55378 25.0833 7.98499 25.8058 8.39242 26.543C8.70105 27.0979 8.99534 27.6647 9.37454 28.1745C9.62615 28.5126 9.91322 28.8224 10.1701 29.1566C10.4269 29.4908 10.6557 29.8548 10.7694 30.2605C10.9157 30.7836 10.8564 31.3608 10.6033 31.8424C10.42 32.1896 10.1434 32.4788 9.80464 32.6773C9.46504 32.8747 9.07602 32.9706 8.6836 32.9538C8.06145 32.9252 7.49332 32.6144 6.90763 32.4037C5.78481 31.9963 4.56785 31.9416 3.41614 31.6235C3.00327 31.5115 2.60073 31.362 2.18585 31.2574C2.00225 31.2111 1.81543 31.1733 1.64106 31.0996C1.46668 31.0259 1.30242 30.9118 1.20785 30.7479C1.1375 30.626 1.10938 30.4825 1.11371 30.3418C1.11805 30.2011 1.15372 30.0639 1.20262 29.9312C1.30287 29.6682 1.46046 29.4311 1.5616 29.1672C1.71496 28.77 1.73386 28.3332 1.70541 27.9084C1.67696 27.4837 1.60316 27.0627 1.57727 26.6377C1.56571 26.4477 1.56393 26.2554 1.60238 26.0691C1.64084 25.8829 1.72197 25.7024 1.85744 25.5677C2.00414 25.4221 2.20641 25.3427 2.41057 25.3116C2.61473 25.2805 2.82245 25.294 3.02794 25.3124C3.23343 25.3307 3.4397 25.3538 3.64586 25.3415C3.85202 25.3292 4.06107 25.2789 4.23155 25.1629C4.38681 25.0579 4.5034 24.9046 4.59208 24.7408C4.68077 24.577 4.74412 24.4013 4.81169 24.2277C4.87926 24.0541 4.9525 23.8807 5.05864 23.7276C5.16477 23.5744 5.30714 23.4381 5.48162 23.368" fill="#D99A03"/>
</g>
<g filter="url(#filter32_f_699_13609)">
<path d="M5.33015 22.9627C5.48686 22.885 5.67135 22.8691 5.84316 22.9041C6.01498 22.9392 6.17413 23.0231 6.30949 23.1329C6.58011 23.3512 6.75182 23.6649 6.91186 23.9716C7.27917 24.6761 7.62125 25.3959 8.06079 26.0593C8.37976 26.5395 8.74762 26.9889 9.07014 27.4678C9.50758 28.1172 9.86322 28.8316 10.0099 29.5968C10.1086 30.1115 10.1055 30.6664 9.85744 31.1311C9.69407 31.4363 9.42956 31.6878 9.11693 31.8433C8.8043 31.9988 8.44533 32.0634 8.09558 32.0325C7.54501 31.984 7.04489 31.7133 6.52666 31.5245C5.607 31.1894 4.6131 31.1094 3.66665 30.8565C3.26745 30.7499 2.87758 30.6126 2.47193 30.5291C2.29344 30.4918 2.1114 30.4647 1.94103 30.4003C1.77065 30.3359 1.60917 30.2294 1.52204 30.0718C1.46091 29.9609 1.44013 29.8311 1.44936 29.7054C1.45858 29.5797 1.49603 29.4571 1.54549 29.3407C1.64418 29.1078 1.78999 28.8943 1.86779 28.6535C1.98037 28.2997 1.93414 27.916 1.84956 27.5547C1.76499 27.1933 1.64318 26.8387 1.60573 26.4698C1.58906 26.3055 1.58939 26.138 1.62684 25.977C1.6643 25.816 1.74098 25.6614 1.86134 25.5459C2.01616 25.3973 2.23298 25.3233 2.44848 25.3025C2.66397 25.2818 2.88102 25.3102 3.0953 25.3407C3.30957 25.3713 3.52518 25.4062 3.74156 25.3953C3.95794 25.3844 4.17811 25.3287 4.34759 25.1962C4.51519 25.0652 4.62054 24.8702 4.681 24.6684C4.74146 24.4666 4.76102 24.2556 4.7858 24.0467C4.81059 23.8378 4.84137 23.627 4.9225 23.4323C5.00363 23.2375 5.14033 23.0581 5.33149 22.9633L5.33015 22.9627Z" fill="#F5BD0C"/>
</g>
<g filter="url(#filter33_f_699_13609)">
<path d="M7.29297 24.7211C7.58259 25.2449 7.7593 25.846 8.04648 26.3742C8.31076 26.8601 8.6115 27.3605 8.88001 27.8086C8.99948 28.0081 9.27821 28.3148 9.56017 28.7907C9.81556 29.2219 10.0734 29.8239 10.2178 30.0261C10.1349 29.7894 9.96437 29.154 9.76099 28.701C9.57206 28.2776 9.34978 28.0362 9.21342 27.8086C8.94491 27.3605 8.65584 26.9577 8.37989 26.5305C7.99925 25.9412 7.70907 25.2819 7.29297 24.7212V24.7211Z" fill="url(#paint24_linear_699_13609)"/>
</g>
</g>
<path d="M36.2422 11.6476H39.7024V19.9878H44.6684V22.8606H36.2422V11.6476ZM46.9308 11.6476H50.3911V22.8695H46.9308V11.6476ZM52.9668 11.6476H56.5042L59.7719 17.6543H59.8056V11.6476H63.0734V22.8695H59.7018L56.2611 16.7431H56.2274V22.8695H52.9597L52.9668 11.6476ZM75.8577 18.5327C75.8577 21.6611 74.2074 23.1463 70.7471 23.1463C67.2869 23.1463 65.6224 21.6691 65.6224 18.5327V11.6459H69.0827V17.7625C69.0827 18.8938 69.0827 20.3418 70.7667 20.3418C72.4506 20.3418 72.4027 18.8982 72.4027 17.7625V11.6459H75.863V18.5327H75.8577ZM81.3586 16.8975L77.6676 11.6476H81.7241L83.4099 14.6998L85.0797 11.6476H88.9152L85.3157 16.9312L89.3198 22.8695H85.1569L83.2369 19.5246L81.2583 22.8695H77.2977L81.3586 16.8975Z" fill="#003764"/>
<defs>
<filter id="filter0_f_699_13609" x="10.0759" y="9.10554" width="8.1295" height="5.22313" filterUnits="userSpaceOnUse" color-interpolation-filters="sRGB">
<feFlood flood-opacity="0" result="BackgroundImageFix"/>
<feBlend mode="normal" in="SourceGraphic" in2="BackgroundImageFix" result="shape"/>
<feGaussianBlur stdDeviation="0.255031" result="effect1_foregroundBlur_699_13609"/>
</filter>
<filter id="filter1_f_699_13609" x="10.3013" y="9.08133" width="7.25091" height="3.53973" filterUnits="userSpaceOnUse" color-interpolation-filters="sRGB">
<feFlood flood-opacity="0" result="BackgroundImageFix"/>
<feBlend mode="normal" in="SourceGraphic" in2="BackgroundImageFix" result="shape"/>
<feGaussianBlur stdDeviation="0.112044" result="effect1_foregroundBlur_699_13609"/>
</filter>
<filter id="filter2_f_699_13609" x="10.1922" y="7.22618" width="7.38309" height="4.0618" filterUnits="userSpaceOnUse" color-interpolation-filters="sRGB">
<feFlood flood-opacity="0" result="BackgroundImageFix"/>
<feBlend mode="normal" in="SourceGraphic" in2="BackgroundImageFix" result="shape"/>
<feGaussianBlur stdDeviation="0.17048" result="effect1_foregroundBlur_699_13609"/>
</filter>
<filter id="filter3_f_699_13609" x="15.4489" y="1.40326" width="2.8346" height="2.73963" filterUnits="userSpaceOnUse" color-interpolation-filters="sRGB">
<feFlood flood-opacity="0" result="BackgroundImageFix"/>
<feBlend mode="normal" in="SourceGraphic" in2="BackgroundImageFix" result="shape"/>
<feGaussianBlur stdDeviation="0.251131" result="effect1_foregroundBlur_699_13609"/>
</filter>
<filter id="filter4_f_699_13609" x="15.6173" y="7.03515" width="0.544682" height="0.442265" filterUnits="userSpaceOnUse" color-interpolation-filters="sRGB">
<feFlood flood-opacity="0" result="BackgroundImageFix"/>
<feBlend mode="normal" in="SourceGraphic" in2="BackgroundImageFix" result="shape"/>
<feGaussianBlur stdDeviation="0.03119" result="effect1_foregroundBlur_699_13609"/>
</filter>
<filter id="filter5_f_699_13609" x="15.5575" y="6.48668" width="1.03543" height="1.0242" filterUnits="userSpaceOnUse" color-interpolation-filters="sRGB">
<feFlood flood-opacity="0" result="BackgroundImageFix"/>
<feBlend mode="normal" in="SourceGraphic" in2="BackgroundImageFix" result="shape"/>
<feGaussianBlur stdDeviation="0.0650105" result="effect1_foregroundBlur_699_13609"/>
</filter>
<filter id="filter6_f_699_13609" x="15.8809" y="4.47513" width="1.77923" height="1.64764" filterUnits="userSpaceOnUse" color-interpolation-filters="sRGB">
<feFlood flood-opacity="0" result="BackgroundImageFix"/>
<feBlend mode="normal" in="SourceGraphic" in2="BackgroundImageFix" result="shape"/>
<feGaussianBlur stdDeviation="0.0185386" result="effect1_foregroundBlur_699_13609"/>
</filter>
<filter id="filter7_f_699_13609" x="11.2963" y="4.69543" width="1.66139" height="1.46876" filterUnits="userSpaceOnUse" color-interpolation-filters="sRGB">
<feFlood flood-opacity="0" result="BackgroundImageFix"/>
<feBlend mode="normal" in="SourceGraphic" in2="BackgroundImageFix" result="shape"/>
<feGaussianBlur stdDeviation="0.0169102" result="effect1_foregroundBlur_699_13609"/>
</filter>
<filter id="filter8_f_699_13609" x="11.3969" y="6.59402" width="0.84102" height="1.19295" filterUnits="userSpaceOnUse" color-interpolation-filters="sRGB">
<feFlood flood-opacity="0" result="BackgroundImageFix"/>
<feBlend mode="normal" in="SourceGraphic" in2="BackgroundImageFix" result="shape"/>
<feGaussianBlur stdDeviation="0.0642589" result="effect1_foregroundBlur_699_13609"/>
</filter>
<filter id="filter9_f_699_13609" x="11.9388" y="10.2209" width="1.99341" height="1.53638" filterUnits="userSpaceOnUse" color-interpolation-filters="sRGB">
<feFlood flood-opacity="0" result="BackgroundImageFix"/>
<feBlend mode="normal" in="SourceGraphic" in2="BackgroundImageFix" result="shape"/>
<feGaussianBlur stdDeviation="0.11261" result="effect1_foregroundBlur_699_13609"/>
</filter>
<filter id="filter10_f_699_13609" x="10.5972" y="8.46721" width="6.2587" height="2.9274" filterUnits="userSpaceOnUse" color-interpolation-filters="sRGB">
<feFlood flood-opacity="0" result="BackgroundImageFix"/>
<feBlend mode="normal" in="SourceGraphic" in2="BackgroundImageFix" result="shape"/>
<feGaussianBlur stdDeviation="0.0949478" result="effect1_foregroundBlur_699_13609"/>
</filter>
<filter id="filter11_f_699_13609" x="13.133" y="8.55366" width="1.83164" height="2.16257" filterUnits="userSpaceOnUse" color-interpolation-filters="sRGB">
<feFlood flood-opacity="0" result="BackgroundImageFix"/>
<feBlend mode="normal" in="SourceGraphic" in2="BackgroundImageFix" result="shape"/>
<feGaussianBlur stdDeviation="0.106347" result="effect1_foregroundBlur_699_13609"/>
</filter>
<filter id="filter12_f_699_13609" x="13.7888" y="8.01773" width="0.684021" height="0.385559" filterUnits="userSpaceOnUse" color-interpolation-filters="sRGB">
<feFlood flood-opacity="0" result="BackgroundImageFix"/>
<feBlend mode="normal" in="SourceGraphic" in2="BackgroundImageFix" result="shape"/>
<feGaussianBlur stdDeviation="0.0137787" result="effect1_foregroundBlur_699_13609"/>
</filter>
<filter id="filter13_f_699_13609" x="12.2986" y="8.07498" width="0.307068" height="0.333801" filterUnits="userSpaceOnUse" color-interpolation-filters="sRGB">
<feFlood flood-opacity="0" result="BackgroundImageFix"/>
<feBlend mode="normal" in="SourceGraphic" in2="BackgroundImageFix" result="shape"/>
<feGaussianBlur stdDeviation="0.0137787" result="effect1_foregroundBlur_699_13609"/>
</filter>
<filter id="filter14_f_699_13609" x="16.5394" y="8.92921" width="0.811753" height="0.95665" filterUnits="userSpaceOnUse" color-interpolation-filters="sRGB">
<feFlood flood-opacity="0" result="BackgroundImageFix"/>
<feBlend mode="normal" in="SourceGraphic" in2="BackgroundImageFix" result="shape"/>
<feGaussianBlur stdDeviation="0.0427819" result="effect1_foregroundBlur_699_13609"/>
</filter>
<filter id="filter15_f_699_13609" x="19.6465" y="15.4947" width="3.80851" height="9.68912" filterUnits="userSpaceOnUse" color-interpolation-filters="sRGB">
<feFlood flood-opacity="0" result="BackgroundImageFix"/>
<feBlend mode="normal" in="SourceGraphic" in2="BackgroundImageFix" result="shape"/>
<feGaussianBlur stdDeviation="0.170876" result="effect1_foregroundBlur_699_13609"/>
</filter>
<filter id="filter16_f_699_13609" x="7.87185" y="14.0359" width="4.31489" height="4.05903" filterUnits="userSpaceOnUse" color-interpolation-filters="sRGB">
<feFlood flood-opacity="0" result="BackgroundImageFix"/>
<feBlend mode="normal" in="SourceGraphic" in2="BackgroundImageFix" result="shape"/>
<feGaussianBlur stdDeviation="0.0865343" result="effect1_foregroundBlur_699_13609"/>
</filter>
<filter id="filter17_f_699_13609" x="13.713" y="13.632" width="6.54675" height="4.71386" filterUnits="userSpaceOnUse" color-interpolation-filters="sRGB">
<feFlood flood-opacity="0" result="BackgroundImageFix"/>
<feBlend mode="normal" in="SourceGraphic" in2="BackgroundImageFix" result="shape"/>
<feGaussianBlur stdDeviation="0.142547" result="effect1_foregroundBlur_699_13609"/>
</filter>
<filter id="filter18_f_699_13609" x="11.4283" y="14.1963" width="2.80348" height="2.97083" filterUnits="userSpaceOnUse" color-interpolation-filters="sRGB">
<feFlood flood-opacity="0" result="BackgroundImageFix"/>
<feBlend mode="normal" in="SourceGraphic" in2="BackgroundImageFix" result="shape"/>
<feGaussianBlur stdDeviation="0.0983299" result="effect1_foregroundBlur_699_13609"/>
</filter>
<filter id="filter19_f_699_13609" x="11.3838" y="17.8147" width="1.19717" height="7.39614" filterUnits="userSpaceOnUse" color-interpolation-filters="sRGB">
<feFlood flood-opacity="0" result="BackgroundImageFix"/>
<feBlend mode="normal" in="SourceGraphic" in2="BackgroundImageFix" result="shape"/>
<feGaussianBlur stdDeviation="0.181127" result="effect1_foregroundBlur_699_13609"/>
</filter>
<filter id="filter20_f_699_13609" x="18.1141" y="10.1047" width="1.80496" height="1.9584" filterUnits="userSpaceOnUse" color-interpolation-filters="sRGB">
<feFlood flood-opacity="0" result="BackgroundImageFix"/>
<feBlend mode="normal" in="SourceGraphic" in2="BackgroundImageFix" result="shape"/>
<feGaussianBlur stdDeviation="0.11286" result="effect1_foregroundBlur_699_13609"/>
</filter>
<filter id="filter21_f_699_13609" x="18.0567" y="22.5607" width="11.1836" height="11.3079" filterUnits="userSpaceOnUse" color-interpolation-filters="sRGB">
<feFlood flood-opacity="0" result="BackgroundImageFix"/>
<feBlend mode="normal" in="SourceGraphic" in2="BackgroundImageFix" result="shape"/>
<feGaussianBlur stdDeviation="0.598622" result="effect1_foregroundBlur_699_13609"/>
</filter>
<filter id="filter22_f_699_13609" x="18.664" y="22.1444" width="10.2755" height="10.2329" filterUnits="userSpaceOnUse" color-interpolation-filters="sRGB">
<feFlood flood-opacity="0" result="BackgroundImageFix"/>
<feBlend mode="normal" in="SourceGraphic" in2="BackgroundImageFix" result="shape"/>
<feGaussianBlur stdDeviation="0.471697" result="effect1_foregroundBlur_699_13609"/>
</filter>
<filter id="filter23_f_699_13609" x="19.3917" y="23.7521" width="6.35523" height="1.22938" filterUnits="userSpaceOnUse" color-interpolation-filters="sRGB">
<feFlood flood-opacity="0" result="BackgroundImageFix"/>
<feBlend mode="normal" in="SourceGraphic" in2="BackgroundImageFix" result="shape"/>
<feGaussianBlur stdDeviation="0.06" result="effect1_foregroundBlur_699_13609"/>
</filter>
<filter id="filter24_f_699_13609" x="20.3906" y="16.8402" width="2.26957" height="2.2924" filterUnits="userSpaceOnUse" color-interpolation-filters="sRGB">
<feFlood flood-opacity="0" result="BackgroundImageFix"/>
<feBlend mode="normal" in="SourceGraphic" in2="BackgroundImageFix" result="shape"/>
<feGaussianBlur stdDeviation="0.287119" result="effect1_foregroundBlur_699_13609"/>
</filter>
<filter id="filter25_f_699_13609" x="9.11706" y="12.7477" width="0.78542" height="0.799824" filterUnits="userSpaceOnUse" color-interpolation-filters="sRGB">
<feFlood flood-opacity="0" result="BackgroundImageFix"/>
<feBlend mode="normal" in="SourceGraphic" in2="BackgroundImageFix" result="shape"/>
<feGaussianBlur stdDeviation="0.080144" result="effect1_foregroundBlur_699_13609"/>
</filter>
<filter id="filter26_f_699_13609" x="20.0824" y="23.4718" width="5.20817" height="4.66533" filterUnits="userSpaceOnUse" color-interpolation-filters="sRGB">
<feFlood flood-opacity="0" result="BackgroundImageFix"/>
<feBlend mode="normal" in="SourceGraphic" in2="BackgroundImageFix" result="shape"/>
<feGaussianBlur stdDeviation="0.356242" result="effect1_foregroundBlur_699_13609"/>
</filter>
<filter id="filter27_f_699_13609" x="20.5187" y="23.9181" width="4.33574" height="2.89507" filterUnits="userSpaceOnUse" color-interpolation-filters="sRGB">
<feFlood flood-opacity="0" result="BackgroundImageFix"/>
<feBlend mode="normal" in="SourceGraphic" in2="BackgroundImageFix" result="shape"/>
<feGaussianBlur stdDeviation="0.138135" result="effect1_foregroundBlur_699_13609"/>
</filter>
<filter id="filter28_f_699_13609" x="20.8096" y="22.2931" width="4.39443" height="2.32937" filterUnits="userSpaceOnUse" color-interpolation-filters="sRGB">
<feFlood flood-opacity="0" result="BackgroundImageFix"/>
<feBlend mode="normal" in="SourceGraphic" in2="BackgroundImageFix" result="shape"/>
<feGaussianBlur stdDeviation="0.128393" result="effect1_foregroundBlur_699_13609"/>
</filter>
<filter id="filter29_f_699_13609" x="20.8096" y="22.2931" width="4.39443" height="2.32937" filterUnits="userSpaceOnUse" color-interpolation-filters="sRGB">
<feFlood flood-opacity="0" result="BackgroundImageFix"/>
<feBlend mode="normal" in="SourceGraphic" in2="BackgroundImageFix" result="shape"/>
<feGaussianBlur stdDeviation="0.128393" result="effect1_foregroundBlur_699_13609"/>
</filter>
<filter id="filter30_f_699_13609" x="5.4293" y="16.2356" width="3.55546" height="7.64421" filterUnits="userSpaceOnUse" color-interpolation-filters="sRGB">
<feFlood flood-opacity="0" result="BackgroundImageFix"/>
<feBlend mode="normal" in="SourceGraphic" in2="BackgroundImageFix" result="shape"/>
<feGaussianBlur stdDeviation="0.141795" result="effect1_foregroundBlur_699_13609"/>
</filter>
<filter id="filter31_f_699_13609" x="0.130233" y="22.3264" width="11.7005" height="11.6123" filterUnits="userSpaceOnUse" color-interpolation-filters="sRGB">
<feFlood flood-opacity="0" result="BackgroundImageFix"/>
<feBlend mode="normal" in="SourceGraphic" in2="BackgroundImageFix" result="shape"/>
<feGaussianBlur stdDeviation="0.491524" result="effect1_foregroundBlur_699_13609"/>
</filter>
<filter id="filter32_f_699_13609" x="0.842248" y="22.2815" width="9.83308" height="10.3636" filterUnits="userSpaceOnUse" color-interpolation-filters="sRGB">
<feFlood flood-opacity="0" result="BackgroundImageFix"/>
<feBlend mode="normal" in="SourceGraphic" in2="BackgroundImageFix" result="shape"/>
<feGaussianBlur stdDeviation="0.302509" result="effect1_foregroundBlur_699_13609"/>
</filter>
<filter id="filter33_f_699_13609" x="7.20028" y="24.6284" width="3.10921" height="5.49044" filterUnits="userSpaceOnUse" color-interpolation-filters="sRGB">
<feFlood flood-opacity="0" result="BackgroundImageFix"/>
<feBlend mode="normal" in="SourceGraphic" in2="BackgroundImageFix" result="shape"/>
<feGaussianBlur stdDeviation="0.0463466" result="effect1_foregroundBlur_699_13609"/>
</filter>
<radialGradient id="paint0_radial_699_13609" cx="0" cy="0" r="1" gradientUnits="userSpaceOnUse" gradientTransform="translate(34.3272 115.175) rotate(-2.41004) scale(3.4498 8.50046)">
<stop stop-color="#FEFEFC"/>
<stop offset="0.757" stop-color="#FEFEFC"/>
<stop offset="1" stop-color="#D4D4D4"/>
</radialGradient>
<radialGradient id="paint1_radial_699_13609" cx="0" cy="0" r="1" gradientUnits="userSpaceOnUse" gradientTransform="translate(71.0715 118.597) rotate(-1.81001) scale(6.19651 8.95384)">
<stop stop-color="#FEFEFC"/>
<stop offset="0.757" stop-color="#FEFEFC"/>
<stop offset="1" stop-color="#D4D4D4"/>
</radialGradient>
<radialGradient id="paint2_radial_699_13609" cx="0" cy="0" r="1" gradientUnits="userSpaceOnUse" gradientTransform="translate(95.1754 15.2565) rotate(-36.0084) scale(5.68214 3.76894)">
<stop stop-color="#020204"/>
<stop offset="0.734" stop-color="#020204"/>
<stop offset="1" stop-color="#5C5C5C"/>
</radialGradient>
<linearGradient id="paint3_linear_699_13609" x1="250.652" y1="108.076" x2="255.772" y2="114.229" gradientUnits="userSpaceOnUse">
<stop stop-color="#949494" stop-opacity="0.392"/>
<stop offset="0.5" stop-color="#949494"/>
<stop offset="1" stop-color="#949494" stop-opacity="0.392"/>
</linearGradient>
<linearGradient id="paint4_linear_699_13609" x1="485.225" y1="465.009" x2="577.792" y2="541.046" gradientUnits="userSpaceOnUse">
<stop stop-color="#747474"/>
<stop offset="0.125" stop-color="#8C8C8C"/>
<stop offset="0.25" stop-color="#A4A4A4"/>
<stop offset="0.5" stop-color="#D4D4D4"/>
<stop offset="0.619" stop-color="#D4D4D4"/>
<stop offset="1" stop-color="#7C7C7C"/>
</linearGradient>
<linearGradient id="paint5_linear_699_13609" x1="42.3653" y1="170.612" x2="64.7887" y2="193.553" gradientUnits="userSpaceOnUse">
<stop stop-color="#646464" stop-opacity="0"/>
<stop offset="0.306" stop-color="#646464" stop-opacity="0.583"/>
<stop offset="0.47" stop-color="#646464"/>
<stop offset="0.728" stop-color="#646464" stop-opacity="0.257"/>
<stop offset="1" stop-color="#646464" stop-opacity="0"/>
</linearGradient>
<linearGradient id="paint6_linear_699_13609" x1="-29.756" y1="154.18" x2="-11.0461" y2="174.681" gradientUnits="userSpaceOnUse">
<stop stop-color="#646464" stop-opacity="0"/>
<stop offset="0.306" stop-color="#646464" stop-opacity="0.583"/>
<stop offset="0.47" stop-color="#646464"/>
<stop offset="0.728" stop-color="#646464" stop-opacity="0.257"/>
<stop offset="1" stop-color="#646464" stop-opacity="0"/>
</linearGradient>
<linearGradient id="paint7_linear_699_13609" x1="107.198" y1="130.329" x2="113.568" y2="137.427" gradientUnits="userSpaceOnUse">
<stop stop-color="#757574" stop-opacity="0"/>
<stop offset="0.263" stop-color="#757574"/>
<stop offset="0.5" stop-color="#757574"/>
<stop offset="1" stop-color="#757574" stop-opacity="0"/>
</linearGradient>
<radialGradient id="paint8_radial_699_13609" cx="0" cy="0" r="1" gradientUnits="userSpaceOnUse" gradientTransform="translate(2033.89 -328.442) rotate(-22.428) scale(213.76 74.2644)">
<stop stop-color="#D2940A"/>
<stop offset="0.751" stop-color="#D89C08"/>
<stop offset="0.866" stop-color="#B67E07"/>
<stop offset="1" stop-color="#946106"/>
</radialGradient>
<linearGradient id="paint9_linear_699_13609" x1="324.597" y1="542.679" x2="703.097" y2="536.804" gradientUnits="userSpaceOnUse">
<stop stop-color="#AD780A"/>
<stop offset="0.12" stop-color="#D89E08"/>
<stop offset="0.255" stop-color="#EDB80B"/>
<stop offset="0.392" stop-color="#EBC80D"/>
<stop offset="0.527" stop-color="#F5D838"/>
<stop offset="0.769" stop-color="#F6D811"/>
<stop offset="1" stop-color="#F5CD31"/>
</linearGradient>
<radialGradient id="paint10_radial_699_13609" cx="0" cy="0" r="1" gradientUnits="userSpaceOnUse" gradientTransform="translate(62.7123 36.4621) scale(2.03334 0.622501)">
<stop stop-color="#3A2903"/>
<stop offset="0.555" stop-color="#735208"/>
<stop offset="1" stop-color="#AC8C04"/>
</radialGradient>
<radialGradient id="paint11_radial_699_13609" cx="0" cy="0" r="1" gradientUnits="userSpaceOnUse" gradientTransform="translate(28.2814 52.2697) scale(0.38798 0.45993)">
<stop stop-color="#3A2903"/>
<stop offset="0.555" stop-color="#735208"/>
<stop offset="1" stop-color="#AC8C04"/>
</radialGradient>
<linearGradient id="paint12_linear_699_13609" x1="157.199" y1="132.363" x2="157.602" y2="134.452" gradientUnits="userSpaceOnUse">
<stop stop-color="#F5CE2D"/>
<stop offset="1" stop-color="#D79B08"/>
</linearGradient>
<radialGradient id="paint13_radial_699_13609" cx="0" cy="0" r="1" gradientUnits="userSpaceOnUse" gradientTransform="translate(439.962 22.5871) rotate(-9.34942) scale(56.4098 24.1961)">
<stop stop-color="#C8C8C8"/>
<stop offset="1" stop-color="#797978"/>
</radialGradient>
<radialGradient id="paint14_radial_699_13609" cx="0" cy="0" r="1" gradientUnits="userSpaceOnUse" gradientTransform="translate(-886.824 639.554) rotate(180) scale(75.9175 77.6329)">
<stop/>
<stop offset="1" stop-opacity="0.25"/>
</radialGradient>
<radialGradient id="paint15_radial_699_13609" cx="0" cy="0" r="1" gradientUnits="userSpaceOnUse" gradientTransform="translate(1847.65 761.152) scale(163.723 86.6399)">
<stop/>
<stop offset="1" stop-opacity="0.25"/>
</radialGradient>
<radialGradient id="paint16_radial_699_13609" cx="0" cy="0" r="1" gradientUnits="userSpaceOnUse" gradientTransform="translate(643.839 633.694) scale(26.1462 29.8882)">
<stop/>
<stop offset="1" stop-opacity="0.25"/>
</radialGradient>
<linearGradient id="paint17_linear_699_13609" x1="4267.44" y1="3706.75" x2="4750.56" y2="2947.27" gradientUnits="userSpaceOnUse">
<stop stop-color="#3E2A06"/>
<stop offset="1" stop-color="#AD780A"/>
</linearGradient>
<linearGradient id="paint18_linear_699_13609" x1="295.724" y1="310.385" x2="295.495" y2="323.13" gradientUnits="userSpaceOnUse">
<stop stop-color="#F3CD0C"/>
<stop offset="1" stop-color="#F3CD0C" stop-opacity="0"/>
</linearGradient>
<radialGradient id="paint19_radial_699_13609" cx="0" cy="0" r="1" gradientUnits="userSpaceOnUse" gradientTransform="translate(1412.6 1843.09) rotate(15) scale(86.3363 77.6038)">
<stop stop-color="#110800"/>
<stop offset="0.591" stop-color="#A65A00" stop-opacity="0.8"/>
<stop offset="1" stop-color="#FF921E" stop-opacity="0"/>
</radialGradient>
<radialGradient id="paint20_radial_699_13609" cx="0" cy="0" r="1" gradientUnits="userSpaceOnUse" gradientTransform="translate(1412.6 1339.12) rotate(10.9628) scale(84.9446 57.0209)">
<stop stop-color="#110800"/>
<stop offset="0.591" stop-color="#A65A00" stop-opacity="0.8"/>
<stop offset="1" stop-color="#FF921E" stop-opacity="0"/>
</radialGradient>
<radialGradient id="paint21_radial_699_13609" cx="0" cy="0" r="1" gradientUnits="userSpaceOnUse" gradientTransform="translate(524.895 330.545) rotate(23.5217) scale(31.3216 6.77165)">
<stop stop-color="#7C7C7C"/>
<stop offset="1" stop-color="#7C7C7C" stop-opacity="0.33"/>
</radialGradient>
<linearGradient id="paint22_linear_699_13609" x1="1412.6" y1="529.816" x2="1424.17" y2="528.785" gradientUnits="userSpaceOnUse">
<stop stop-color="#7C7C7C"/>
<stop offset="1" stop-color="#7C7C7C" stop-opacity="0.33"/>
</linearGradient>
<linearGradient id="paint23_linear_699_13609" x1="1304.87" y1="3182.05" x2="1802.29" y2="4025.78" gradientUnits="userSpaceOnUse">
<stop stop-color="#B98309"/>
<stop offset="1" stop-color="#382605"/>
</linearGradient>
<linearGradient id="paint24_linear_699_13609" x1="507.55" y1="1734.12" x2="603.683" y2="1833.89" gradientUnits="userSpaceOnUse">
<stop stop-color="#EBC40C"/>
<stop offset="1" stop-color="#EBC40C" stop-opacity="0"/>
</linearGradient>
</defs>
</svg>
