<svg width="47" height="40" viewBox="0 0 47 40" fill="none" xmlns="http://www.w3.org/2000/svg">
<path d="M43.6116 37.7775H42.9309V39.8563H42.6554V37.7775H41.9746V37.5302H43.6116V37.7775Z" fill="#009FE3"/>
<path d="M46.2196 39.8605H45.944V38.3004C45.944 38.1767 45.9521 38.0251 45.9683 37.8495H45.9602C45.9319 37.9533 45.9116 38.0291 45.8873 38.0769L45.0809 39.8645H44.9472L44.1409 38.0889C44.1166 38.037 44.0922 37.9572 44.072 37.8495H44.0639C44.072 37.9413 44.076 38.0929 44.076 38.3044V39.8605H43.8086V37.5343H44.1733L44.8986 39.1543C44.9553 39.2779 44.9918 39.3697 45.008 39.4336H45.0161C45.0647 39.3059 45.1012 39.2101 45.1296 39.1503L45.8711 37.5343H46.2155V39.8605H46.2196Z" fill="#009FE3"/>
<path d="M40.4956 19.1084V0.00012207L18.2051 3.20012V19.1084H40.4956Z" fill="#009FE3"/>
<path d="M16.6353 3.42749L0.447266 5.75367V19.1083H16.6353V3.42749Z" fill="#009FE3"/>
<path d="M0.447266 20.6562V34.1824L16.6353 36.5326V20.6562H0.447266Z" fill="#009FE3"/>
<path d="M18.2051 36.76L40.4956 39.9999V20.6562H18.2051V36.76Z" fill="#009FE3"/>
</svg>
